<svg xmlns="http://www.w3.org/2000/svg" xmlns:xlink="http://www.w3.org/1999/xlink" width="260.794" height="93.94" viewBox="0 0 260.794 93.94">
  <defs>
    <linearGradient id="linear-gradient" y1="0.5" x2="1" y2="0.5" gradientUnits="objectBoundingBox">
      <stop offset="0" stop-color="#fff"/>
      <stop offset="0.27" stop-color="#fdfdfd"/>
      <stop offset="0.41" stop-color="#f7f5f7"/>
      <stop offset="0.52" stop-color="#ece8ed"/>
      <stop offset="0.61" stop-color="#dcd5de"/>
      <stop offset="0.7" stop-color="#c8bccb"/>
      <stop offset="0.77" stop-color="#af9eb4"/>
      <stop offset="0.84" stop-color="#927a98"/>
      <stop offset="0.91" stop-color="#705078"/>
      <stop offset="0.97" stop-color="#4a2255"/>
      <stop offset="1" stop-color="#350941"/>
    </linearGradient>
  </defs>
  <g id="Logo_Frencken_diap" data-name="Logo Frencken diap" transform="translate(-0.996)">
    <path id="Path" d="M39.43,33.46c11.58,3.55,30.41,13.4,24.11,36.77,4.32-4.73,11.78-8.49,12.53-8.86.13-22.74-16.87-28.74-35.61-35C29.46,22.67,15.61,19.75,0,0,10.67,23.53,27.55,29.82,39.43,33.46Z" transform="translate(69.23 0.01)" fill="#ef881f"/>
    <path id="Path-2" data-name="Path" d="M40.46,26.37C29.46,22.67,15.61,19.75,0,0,10.68,23.54,27.56,29.83,39.44,33.47c11.58,3.55,30.41,13.4,24.11,36.77,4.32-4.73,11.78-8.49,12.53-8.86C76.2,38.65,59.2,32.65,40.46,26.37Z" transform="translate(69.22)" opacity="0.2" fill="url(#linear-gradient)"/>
    <path id="Path-3" data-name="Path" d="M58.246,1.739c-2.77.63-5.37,1.52-8,2.14a73.24,73.24,0,0,0-7.69,1.81c-14.23,4.77-30.3,11-40.42,23.9-5.42,6.93.54,12.37,6.07,12.43a6.43,6.43,0,0,0,6.17-3.61c6.37-13.33,19-26.55,33.1-32.72,24.87-1.84,49.54,10,87.69-3.8C106.126,6.789,83.6-4.021,58.246,1.739Z" transform="translate(126.624 47.801)" fill="#ef881f"/>
    <path id="Path-4" data-name="Path" d="M14.416.66A4.09,4.09,0,0,1,16,2.24a4.6,4.6,0,0,1,.57,2.3v8.14a.9.9,0,0,1-.22.65.84.84,0,0,1-.63.23.78.78,0,0,1-.61-.23.92.92,0,0,1-.21-.65v-8a3,3,0,0,0-.38-1.52,2.71,2.71,0,0,0-1.05-1,3,3,0,0,0-1.46-.37,4.12,4.12,0,0,0-1.7.38,6.12,6.12,0,0,0-1.41.8,4.8,4.8,0,0,1,.25,1.58v8.13a.91.91,0,0,1-.22.65.82.82,0,0,1-.63.23.82.82,0,0,1-.62-.23.9.9,0,0,1-.22-.65V4.58a2.87,2.87,0,0,0-.38-1.5,2.58,2.58,0,0,0-1-1,3.13,3.13,0,0,0-1.47-.34,6.35,6.35,0,0,0-1.54.13,13,13,0,0,0-1.37.41v10.4a.92.92,0,0,1-.21.65.78.78,0,0,1-.6.23.88.88,0,0,1-.65-.23.88.88,0,0,1-.23-.65v-11A.74.74,0,0,1,.546.87a20.2,20.2,0,0,1,2-.59A9.34,9.34,0,0,1,4.676.05,4.78,4.78,0,0,1,6.526.4a4,4,0,0,1,1.45,1,10.29,10.29,0,0,1,2-1,6.29,6.29,0,0,1,2.16-.4A4.54,4.54,0,0,1,14.416.66Z" transform="translate(1.104 24.13)" fill="#ef881f"/>
    <path id="Shape" d="M5.923,17.983H5.84a11.4,11.4,0,0,1-2.54-.29c-.544-.086-.82-.342-.82-.76a.871.871,0,0,1,.2-.6.681.681,0,0,1,.51-.23h.19a9.072,9.072,0,0,0,2.112.25h.088c.051,0,.1.006.155.006a2.178,2.178,0,0,0,1.795-.945,5.247,5.247,0,0,0,.63-2.89l.11-.73-.54.329a5.477,5.477,0,0,1-1.309.54,6.335,6.335,0,0,1-1.762.25H4.611a4.322,4.322,0,0,1-2.281-.65,4.749,4.749,0,0,1-1.7-1.8A5.232,5.232,0,0,1,0,7.9V4.783a4.9,4.9,0,0,1,.65-2.5A4.35,4.35,0,0,1,2.341.6,4.9,4.9,0,0,1,4.688,0h.093l.231,0A11.136,11.136,0,0,1,9.121.782a1.1,1.1,0,0,1,.53.34,1.071,1.071,0,0,1,.14.62v11.04a7.4,7.4,0,0,1-.47,2.8,3.864,3.864,0,0,1-1.37,1.78A3.608,3.608,0,0,1,5.923,17.983ZM4.9,11.2h0c.1.005.192.008.288.008A5.246,5.246,0,0,0,6.65,11a6.45,6.45,0,0,0,1-.44l.4-.23V2.253l-.63-.22a6.709,6.709,0,0,0-1.15-.25,9.341,9.341,0,0,0-1.352-.1H4.852a3.405,3.405,0,0,0-1.581.391A2.853,2.853,0,0,0,2.12,3.2a3.439,3.439,0,0,0-.42,1.72v3a3.766,3.766,0,0,0,.41,1.769,2.886,2.886,0,0,0,1.13,1.09,3.271,3.271,0,0,0,1.6.421Z" transform="translate(21.349 24.218)" fill="#ef881f"/>
    <path id="Path-5" data-name="Path" d="M5.522,1.73a7.65,7.65,0,0,0-1-.07,4.51,4.51,0,0,0-1.58.3,3.57,3.57,0,0,0-1.25.73v9.9a.94.94,0,0,1-.21.65.77.77,0,0,1-.6.23.89.89,0,0,1-.65-.23A.87.87,0,0,1,0,12.59V2a.7.7,0,0,1,.14-.41A1.23,1.23,0,0,1,.5,1.26a6.44,6.44,0,0,1,1.87-.9A7.15,7.15,0,0,1,4.542,0a8.87,8.87,0,0,1,1.25.09,4.86,4.86,0,0,1,1.06.25.77.77,0,0,1,.39.3.82.82,0,0,1,.13.46.85.85,0,0,1-.23.65.83.83,0,0,1-.65.19A6.5,6.5,0,0,0,5.522,1.73Z" transform="translate(35.628 24.22)" fill="#ef881f"/>
    <path id="Path-6" data-name="Path" d="M.36,2.1A1.18,1.18,0,0,1,0,1.23,1.2,1.2,0,0,1,.36.36,1.17,1.17,0,0,1,1.23,0,1.22,1.22,0,0,1,2.47,1.24a1.17,1.17,0,0,1-.36.87,1.21,1.21,0,0,1-.88.35A1.18,1.18,0,0,1,.36,2.1Z" transform="translate(41.44 35.33)" fill="#ef881f"/>
    <path id="Path-7" data-name="Path" d="M10.444.01a1.79,1.79,0,0,1,1.32.46,1.83,1.83,0,0,1,.46,1.35,1.88,1.88,0,0,1-.45,1.36,1.76,1.76,0,0,1-1.33.46H3.634V9.22H8.5a1.85,1.85,0,0,1,1.35.45,1.74,1.74,0,0,1,.46,1.29q0,1.66-1.8,1.66H3.634v6.26a1.79,1.79,0,0,1-.46,1.33,1.86,1.86,0,0,1-1.36.46,1.83,1.83,0,0,1-1.34-.45A1.79,1.79,0,0,1,0,18.89V1.74A1.72,1.72,0,0,1,.534.42,2.12,2.12,0,0,1,2,.01Z" transform="translate(0.996 43.58)" fill="#fff"/>
    <path id="Path-8" data-name="Path" d="M5.635,3.4a3.58,3.58,0,0,0-1.21.21,3.21,3.21,0,0,0-1,.57v9.78A1.81,1.81,0,0,1,3,15.25a1.59,1.59,0,0,1-1.22.44,1.79,1.79,0,0,1-1.33-.47A1.72,1.72,0,0,1,0,13.93V2.65a1.2,1.2,0,0,1,.25-.73,2.13,2.13,0,0,1,.66-.57,7.88,7.88,0,0,1,2.24-1A9.44,9.44,0,0,1,5.645,0a10.53,10.53,0,0,1,1.45.1,6.39,6.39,0,0,1,1.22.27,1.46,1.46,0,0,1,.73.57,1.69,1.69,0,0,1,.24.92,1.5,1.5,0,0,1-1.71,1.71,15,15,0,0,0-1.94-.17Z" transform="translate(14.545 48.6)" fill="#fff"/>
    <path id="Shape-2" data-name="Shape" d="M6.044,15.832a6.315,6.315,0,0,1-3.074-.8A5.85,5.85,0,0,1,.78,12.9,5.43,5.43,0,0,1,0,10.081V5.861A5.773,5.773,0,0,1,.78,2.921,5.69,5.69,0,0,1,2.96.791,6.409,6.409,0,0,1,6.042,0h.222A6.158,6.158,0,0,1,9.35.831a5.978,5.978,0,0,1,3.03,5.23v1.58a1.611,1.611,0,0,1-.4,1.12,1.428,1.428,0,0,1-1.041.452l-.079,0H3.28v.52a2.908,2.908,0,0,0,.36,1.4,2.8,2.8,0,0,0,1,1.07,2.831,2.831,0,0,0,1.467.41h.043a5.4,5.4,0,0,0,2.26-.56,2.732,2.732,0,0,0,.35-.16l.36-.16a1.137,1.137,0,0,1,.349,0l.07,0a1.43,1.43,0,0,1,1.08.492,1.714,1.714,0,0,1,.44,1.14,1.646,1.646,0,0,1-.16.73,1.438,1.438,0,0,1-.48.56,6.934,6.934,0,0,1-1.85.83,8.216,8.216,0,0,1-2.374.35H6.044Zm.1-12.821H6.12a3.116,3.116,0,0,0-1.43.349,2.562,2.562,0,0,0-1,1,2.787,2.787,0,0,0-.38,1.45v.55H9.08V5.7a2.723,2.723,0,0,0-.41-1.339,2.616,2.616,0,0,0-1.08-1A3.166,3.166,0,0,0,6.148,3.011Z" transform="translate(25.41 48.639)" fill="#fff"/>
    <path id="Path-9" data-name="Path" d="M9.695.733a5.05,5.05,0,0,1,2,2.06,6.38,6.38,0,0,1,.71,3.07v8a1.54,1.54,0,0,1-1.73,1.73,1.64,1.64,0,0,1-1.24-.44,1.78,1.78,0,0,1-.42-1.29V6.043a2.62,2.62,0,0,0-.74-2,2.76,2.76,0,0,0-2-.69,10.09,10.09,0,0,0-2.87.41V13.9a1.81,1.81,0,0,1-.42,1.29,1.59,1.59,0,0,1-1.22.44,1.79,1.79,0,0,1-1.31-.44A1.72,1.72,0,0,1,0,13.9V2.273a1.52,1.52,0,0,1,.19-.77,1.07,1.07,0,0,1,.52-.47,13,13,0,0,1,2.65-.76A17.82,17.82,0,0,1,6.585,0,6.14,6.14,0,0,1,9.695.733Z" transform="translate(40.745 48.627)" fill="#fff"/>
    <path id="Path-10" data-name="Path" d="M.78,2.912A5.7,5.7,0,0,1,3.01.782,6.68,6.68,0,0,1,6.29,0a6.908,6.908,0,0,1,4.11,1.25,1.67,1.67,0,0,1,.49.58,1.49,1.49,0,0,1,.16.67,1.68,1.68,0,0,1-.4,1.1,1.16,1.16,0,0,1-.9.49,2.21,2.21,0,0,1-.53,0L8.84,4l-.31-.09a8.48,8.48,0,0,0-1.08-.39,4.87,4.87,0,0,0-1.34-.15,2.92,2.92,0,0,0-1.38.33,2.48,2.48,0,0,0-1.35,2.26v4a2.52,2.52,0,0,0,.36,1.33,2.48,2.48,0,0,0,1,.93,2.91,2.91,0,0,0,1.39.33,5,5,0,0,0,1.33-.16,5.87,5.87,0,0,0,1.07-.41l.28-.08a2.66,2.66,0,0,1,.44-.09h.5a1.16,1.16,0,0,1,.9.49,1.68,1.68,0,0,1,.4,1.1,1.48,1.48,0,0,1-.66,1.24,7.2,7.2,0,0,1-1.76.92,7.52,7.52,0,0,1-2.48.34,6.35,6.35,0,0,1-3.19-.79,5.78,5.78,0,0,1-2.18-2.13A5.64,5.64,0,0,1,0,10.062V5.852A5.68,5.68,0,0,1,.78,2.912Z" transform="translate(56.71 48.628)" fill="#fff"/>
    <path id="Shape-3" data-name="Shape" d="M1.7,21.289A1.731,1.731,0,0,1,.491,20.8,1.625,1.625,0,0,1,0,19.609V1.679A1.624,1.624,0,0,1,.491.49a1.741,1.741,0,0,1,2.42,0,1.627,1.627,0,0,1,.49,1.19V7.49A7.084,7.084,0,0,1,5.5,6.15a6.292,6.292,0,0,1,2.416-.48h.058a4.335,4.335,0,0,1,1.956.47A3.747,3.747,0,0,1,11.4,7.47a3.586,3.586,0,0,1,.55,2,5.131,5.131,0,0,1-.82,2.86,7.758,7.758,0,0,1-2.52,2.309l2.93,3.551a2.273,2.273,0,0,1,.409.63,2.341,2.341,0,0,1,.131.82,1.442,1.442,0,0,1-.211.74,1.641,1.641,0,0,1-.6.59,1.755,1.755,0,0,1-.865.23h-.035a1.3,1.3,0,0,1-.641-.17,2.7,2.7,0,0,1-.67-.58L5.58,16.04l-.66.239L3.4,16.8v2.81a1.628,1.628,0,0,1-.49,1.191A1.733,1.733,0,0,1,1.7,21.289ZM7.279,9.217q-.05,0-.1,0a3.491,3.491,0,0,0-1.71.49A4.227,4.227,0,0,0,4,11.11a3.661,3.661,0,0,0-.59,2v.28l1.8-.71a13.692,13.692,0,0,0,2.49-1.19,1.51,1.51,0,0,0,.83-1.22.931.931,0,0,0-.35-.78A1.613,1.613,0,0,0,7.279,9.217Z" transform="translate(71.17 42.96)" fill="#fff"/>
    <path id="Shape-4" data-name="Shape" d="M6.044,15.832a6.315,6.315,0,0,1-3.074-.8A5.85,5.85,0,0,1,.78,12.9,5.43,5.43,0,0,1,0,10.081V5.861A5.773,5.773,0,0,1,.78,2.921,5.69,5.69,0,0,1,2.96.791,6.409,6.409,0,0,1,6.042,0h.222A6.158,6.158,0,0,1,9.35.831a6.079,6.079,0,0,1,2.99,5.241v1.58a1.619,1.619,0,0,1-.4,1.121,1.437,1.437,0,0,1-1.044.452l-.076,0H3.28v.519a2.908,2.908,0,0,0,.36,1.4,2.8,2.8,0,0,0,1,1.07,2.831,2.831,0,0,0,1.467.41h.043a5.4,5.4,0,0,0,2.26-.56,2.734,2.734,0,0,0,.35-.16l.36-.159a1.083,1.083,0,0,1,.349,0l.073,0a1.427,1.427,0,0,1,1.077.491,1.718,1.718,0,0,1,.44,1.13,1.646,1.646,0,0,1-.16.73,1.438,1.438,0,0,1-.48.56,6.934,6.934,0,0,1-1.85.83,8.216,8.216,0,0,1-2.374.35H6.044ZM6.118,3.01h0a3.113,3.113,0,0,0-1.428.349,2.562,2.562,0,0,0-1,1,2.787,2.787,0,0,0-.38,1.45v.55H9.08V5.7a2.723,2.723,0,0,0-.41-1.339,2.612,2.612,0,0,0-1.05-1,3.164,3.164,0,0,0-1.442-.349h-.06Z" transform="translate(85.79 48.639)" fill="#fff"/>
    <path id="Path-11" data-name="Path" d="M9.695.733a5.05,5.05,0,0,1,2,2.06,6.38,6.38,0,0,1,.71,3.07v8a1.54,1.54,0,0,1-1.73,1.73,1.64,1.64,0,0,1-1.24-.44,1.78,1.78,0,0,1-.42-1.29V6.043a2.62,2.62,0,0,0-.74-2,2.76,2.76,0,0,0-2-.69,10.09,10.09,0,0,0-2.87.41V13.9a1.81,1.81,0,0,1-.42,1.29,1.59,1.59,0,0,1-1.22.44,1.79,1.79,0,0,1-1.31-.44A1.72,1.72,0,0,1,0,13.9V2.273a1.52,1.52,0,0,1,.19-.77,1.07,1.07,0,0,1,.52-.47,13,13,0,0,1,2.65-.76A17.82,17.82,0,0,1,6.585,0a6.14,6.14,0,0,1,3.11.73Z" transform="translate(101.135 48.627)" fill="#fff"/>
    <path id="Path-12" data-name="Path" d="M10.25,20.631a8.31,8.31,0,0,1-3.08.5,6.94,6.94,0,0,1-3.68-1,7.09,7.09,0,0,1-2.56-2.66A7.34,7.34,0,0,1,0,13.851V7.311a7.52,7.52,0,0,1,.91-3.64A6.9,6.9,0,0,1,3.46,1,7,7,0,0,1,7.17,0a8.74,8.74,0,0,1,2.89.44,9.48,9.48,0,0,1,2.57,1.44,1.66,1.66,0,0,1,.74,1.38,1.77,1.77,0,0,1-.24.89,2,2,0,0,1-.64.68,1.52,1.52,0,0,1-.84.26,1.77,1.77,0,0,1-.63-.12,4.15,4.15,0,0,1-.74-.38,6.05,6.05,0,0,0-1.45-.73,5.4,5.4,0,0,0-1.7-.24,3.53,3.53,0,0,0-1.77.45A3.25,3.25,0,0,0,4.1,5.391a4.2,4.2,0,0,0-.47,2v6.26a4.2,4.2,0,0,0,.48,2.07,3.2,3.2,0,0,0,1.29,1.3,3.66,3.66,0,0,0,1.78.44,5.23,5.23,0,0,0,1.66-.25,6.09,6.09,0,0,0,1.46-.72,2.64,2.64,0,0,1,1.35-.5,1.52,1.52,0,0,1,.84.26,2,2,0,0,1,.64.68,1.77,1.77,0,0,1,.24.89,1.69,1.69,0,0,1-.74,1.38A9.79,9.79,0,0,1,10.25,20.631Z" transform="translate(1 67.799)" fill="#fff"/>
    <path id="Shape-5" data-name="Shape" d="M6.161,15.854a6.8,6.8,0,0,1-3.12-.761A5.788,5.788,0,0,1,.811,13,5.5,5.5,0,0,1,0,10.012V5.872a5.56,5.56,0,0,1,.82-3A5.771,5.771,0,0,1,3,.762a6.787,6.787,0,0,1,6.25,0,5.818,5.818,0,0,1,2.27,2.11,5.509,5.509,0,0,1,.82,3v4.19a5.456,5.456,0,0,1-.82,2.94,5.821,5.821,0,0,1-2.24,2.09A6.8,6.8,0,0,1,6.161,15.854ZM6.128,3.342a3.006,3.006,0,0,0-1.367.33,2.524,2.524,0,0,0-1.37,2.29V9.872a2.538,2.538,0,0,0,.37,1.37,2.453,2.453,0,0,0,1,.92,3.013,3.013,0,0,0,1.349.321h.106a3.127,3.127,0,0,0,1.375-.321,2.453,2.453,0,0,0,1-.92,2.548,2.548,0,0,0,.36-1.37V5.962a2.524,2.524,0,0,0-1.37-2.29,3.02,3.02,0,0,0-1.371-.331H6.128Z" transform="translate(16.999 73.128)" fill="#fff"/>
    <path id="Path-13" data-name="Path" d="M5.792,1.7v17.82a1.68,1.68,0,0,1-.43,1.26,2.09,2.09,0,0,1-2.53,0,1.67,1.67,0,0,1-.44-1.25V3.435H1.7a1.68,1.68,0,0,1-1.26-.43,1.73,1.73,0,0,1-.42-1.26A1.49,1.49,0,0,1,1.7.015h2.39a2.66,2.66,0,0,1,.64.08,1.44,1.44,0,0,1,1.06,1.6Z" transform="translate(30.298 67.565)" fill="#fff"/>
    <path id="Path-14" data-name="Path" d="M5.745,1.694v17.82a1.68,1.68,0,0,1-.43,1.26,2.09,2.09,0,0,1-2.53,0,1.67,1.67,0,0,1-.44-1.25V3.434h-.67a1.68,1.68,0,0,1-1.24-.47A1.73,1.73,0,0,1,.015,1.7,1.49,1.49,0,0,1,1.7.014h2.39a2.66,2.66,0,0,1,.64.08,1.44,1.44,0,0,1,1.02,1.6Z" transform="translate(38.565 67.566)" fill="#fff"/>
    <path id="Shape-6" data-name="Shape" d="M6.058,15.892a6.323,6.323,0,0,1-3.078-.8,5.858,5.858,0,0,1-2.16-2.22A5.427,5.427,0,0,1,0,10.061V5.871A5.773,5.773,0,0,1,.78,2.931,5.69,5.69,0,0,1,3,.791,6.4,6.4,0,0,1,6.081,0h.143A6.152,6.152,0,0,1,9.38.871a6.083,6.083,0,0,1,2.991,5.24v1.58a1.614,1.614,0,0,1-.4,1.12,1.436,1.436,0,0,1-1.043.452l-.076,0H3.31v.52a2.9,2.9,0,0,0,.36,1.4,2.8,2.8,0,0,0,1,1.07,2.844,2.844,0,0,0,1.472.411H6.18a5.427,5.427,0,0,0,2.26-.56,2.741,2.741,0,0,0,.35-.16l.36-.16a1.088,1.088,0,0,1,.35,0l.07,0a1.432,1.432,0,0,1,1.08.491,1.718,1.718,0,0,1,.419,1.15,1.646,1.646,0,0,1-.16.73,1.439,1.439,0,0,1-.48.561,6.94,6.94,0,0,1-1.849.83,8.278,8.278,0,0,1-2.384.35H6.058ZM6.113,3.01a3.109,3.109,0,0,0-1.392.331v.031a2.54,2.54,0,0,0-1,1,2.779,2.779,0,0,0-.381,1.45v.64H9.11V5.8a2.713,2.713,0,0,0-.38-1.44,2.6,2.6,0,0,0-1.049-1,3.166,3.166,0,0,0-1.443-.349H6.21Z" transform="translate(48 73.129)" fill="#fff"/>
    <path id="Shape-7" data-name="Shape" d="M7.327,20.841H7.213A13.95,13.95,0,0,1,4.641,20.6c-1.036-.153-1.561-.665-1.561-1.52a1.713,1.713,0,0,1,.391-1.18,1.436,1.436,0,0,1,1.023-.433l.086,0h.31a9.841,9.841,0,0,0,1.823.17h.056c.056,0,.113.007.169.007A2.079,2.079,0,0,0,8.611,16.8a4.621,4.621,0,0,0,.56-2.579l.25-.28-.57.35a5.538,5.538,0,0,1-1.34.56,6.548,6.548,0,0,1-1.825.26H5.631a4.988,4.988,0,0,1-2.75-.831A6.15,6.15,0,0,1,.791,12,6.492,6.492,0,0,1,0,8.831V6.041A6.38,6.38,0,0,1,.761,2.9,5.393,5.393,0,0,1,2.841.77,6.006,6.006,0,0,1,5.779,0H6a17.569,17.569,0,0,1,2.706.21,13.862,13.862,0,0,1,2.54.68,1.762,1.762,0,0,1,.86.56,1.92,1.92,0,0,1,.229,1.07v12.15a7.634,7.634,0,0,1-.62,3.23,5.063,5.063,0,0,1-1.8,2.17A4.74,4.74,0,0,1,7.327,20.841Zm-1.156-9.06h0c.062,0,.126,0,.188,0a4.87,4.87,0,0,0,1.462-.224h.01a6.174,6.174,0,0,0,1.14-.55V3.781a13.1,13.1,0,0,0-1.28-.31,8.979,8.979,0,0,0-1.345-.1l-.175,0H6.114a2.873,2.873,0,0,0-1.373.351,2.522,2.522,0,0,0-1,1,3.337,3.337,0,0,0-.37,1.61v2.35a3.166,3.166,0,0,0,.8,2.27,2.617,2.617,0,0,0,1.91.832Z" transform="translate(62.829 73.099)" fill="#fff"/>
    <path id="Shape-8" data-name="Shape" d="M6.068,15.8A6.323,6.323,0,0,1,2.99,15,5.864,5.864,0,0,1,.78,12.861,5.435,5.435,0,0,1,0,10.041V5.861A5.773,5.773,0,0,1,.78,2.921,5.69,5.69,0,0,1,2.96.791,6.409,6.409,0,0,1,6.042,0h.173A6.147,6.147,0,0,1,9.35.861,6.079,6.079,0,0,1,12.34,6.1v1.58a1.619,1.619,0,0,1-.4,1.12,1.437,1.437,0,0,1-1.044.452l-.076,0H3.271v.52a2.89,2.89,0,0,0,.36,1.4,2.8,2.8,0,0,0,1,1.07,2.838,2.838,0,0,0,1.471.411H6.14A5.341,5.341,0,0,0,8.4,12.091a2.69,2.69,0,0,0,.38-.229l.36-.16a1.088,1.088,0,0,1,.35,0l.07,0a1.427,1.427,0,0,1,1.079.492,1.713,1.713,0,0,1,.44,1.139,1.658,1.658,0,0,1-.159.73,1.45,1.45,0,0,1-.481.561,6.94,6.94,0,0,1-1.849.83,8.278,8.278,0,0,1-2.384.35H6.068ZM6.088,3a3.127,3.127,0,0,0-1.4.332v.03a2.56,2.56,0,0,0-1,1,2.787,2.787,0,0,0-.38,1.45v.64H9.08V5.791a2.717,2.717,0,0,0-.38-1.44,2.608,2.608,0,0,0-1.05-1A3.175,3.175,0,0,0,6.2,3H6.088Z" transform="translate(78.92 73.139)" fill="#fff"/>
  </g>
</svg>
