<?xml version="1.0" encoding="utf-8"?>
<svg version="1.1" id="Layer_1" xmlns="http://www.w3.org/2000/svg" xmlns:xlink="http://www.w3.org/1999/xlink" x="0px" y="0px" viewBox="0 0 1548.6 721.6" style="enable-background:new 0 0 1548.6 721.6;" xml:space="preserve">
<style type="text/css">
	.st0{fill:#CECED3; opacity: 0.05; }
</style>
<g>
	<g id="Group_3">
		<path id="Fill_1" class="st0" d="M320.3,270.7c91.9,28.3,241.3,106.6,191.3,292.5c34.3-37.6,93.5-67.5,99.4-70.4
			c1-180.9-133.8-228.6-282.6-278.5C240.8,184.8,131.2,161.6,7.3,4.5C92.1,191.7,226,241.7,320.3,270.7"/>
	</g>
</g>
<g id="Group_6-2">
	<path id="Fill_4" class="st0" d="M929,396.6c-22,5-42.7,12-63.7,17c-18.8,4.4-37.8,6.6-61.1,14.4
		c-113.1,37.8-240.9,86.8-321.3,189.4c-43.1,54.9,4.3,98.1,48.3,98.5c20,0.2,39.2-8.4,49-28.7c50.7-105.7,151.1-210.4,263.2-259.4
		c197.7-14.6,393.8,79.7,697.1-30.1C1309.6,436.6,1130.5,350.9,929,396.6"/>
</g>
</svg>
