<svg xmlns="http://www.w3.org/2000/svg" width="17.599" height="17.6" viewBox="0 0 17.599 17.6">
  <g id="vergrootglas_icon" data-name="vergrootglas icon" transform="translate(0 0)">
    <path id="Shape" d="M16.129,17.6a1.461,1.461,0,0,1-1.04-.431l-3.823-3.823a.332.332,0,0,1-.031-.037c-.007-.01-.015-.019-.023-.028a7.238,7.238,0,1,1,2.068-2.068l.029.023a.335.335,0,0,1,.037.03l3.823,3.823a1.471,1.471,0,0,1-1.04,2.511ZM7.236,2.508a4.728,4.728,0,1,0,4.728,4.728A4.733,4.733,0,0,0,7.236,2.508Z" transform="translate(0 0)" fill="#350941"/>
  </g>
</svg>
