<?xml version="1.0" encoding="utf-8"?>
<!-- Generator: Adobe Illustrator 23.0.3, SVG Export Plug-In . SVG Version: 6.00 Build 0)  -->
<svg version="1.1" id="Layer_1" xmlns="http://www.w3.org/2000/svg" xmlns:xlink="http://www.w3.org/1999/xlink" x="0px" y="0px"
	 viewBox="0 0 88 91" style="enable-background:new 0 0 88 91;" xml:space="preserve">
<style type="text/css">
	.st0{fill:#EFEFF4;}
</style>
<g>
	<path class="st0" d="M26.17,10.88c-0.59,0-1.07,0.48-1.07,1.07v2.33c0,0.59,0.48,1.07,1.07,1.07c0.59,0,1.07-0.48,1.07-1.07v-2.33
		C27.23,11.36,26.76,10.88,26.17,10.88"/>
	<path class="st0" d="M26.17,18.04c-0.59,0-1.07,0.48-1.07,1.07v2.33c0,0.59,0.48,1.07,1.07,1.07c0.59,0,1.07-0.48,1.07-1.07v-2.33
		C27.23,18.52,26.76,18.04,26.17,18.04"/>
	<path class="st0" d="M30.91,15.63h-2.33c-0.59,0-1.07,0.48-1.07,1.07c0,0.59,0.48,1.07,1.07,1.07h2.33c0.59,0,1.07-0.48,1.07-1.07
		C31.98,16.11,31.5,15.63,30.91,15.63"/>
	<path class="st0" d="M23.75,15.63h-2.33c-0.59,0-1.07,0.48-1.07,1.07c0,0.59,0.48,1.07,1.07,1.07h2.33c0.59,0,1.07-0.48,1.07-1.07
		C24.82,16.11,24.34,15.63,23.75,15.63"/>
	<path class="st0" d="M66.6,65.74c-0.59,0-1.07,0.48-1.07,1.07v2.33c0,0.59,0.48,1.07,1.07,1.07s1.07-0.48,1.07-1.07v-2.33
		C67.67,66.22,67.19,65.74,66.6,65.74"/>
	<path class="st0" d="M66.6,72.9c-0.59,0-1.07,0.48-1.07,1.07v2.33c0,0.59,0.48,1.07,1.07,1.07s1.07-0.48,1.07-1.07v-2.33
		C67.67,73.38,67.19,72.9,66.6,72.9"/>
	<path class="st0" d="M71.35,70.49h-2.33c-0.59,0-1.07,0.48-1.07,1.07c0,0.59,0.48,1.07,1.07,1.07h2.33c0.59,0,1.07-0.48,1.07-1.07
		C72.42,70.96,71.94,70.49,71.35,70.49"/>
	<path class="st0" d="M64.19,70.49h-2.33c-0.59,0-1.07,0.48-1.07,1.07c0,0.59,0.48,1.07,1.07,1.07h2.33c0.59,0,1.07-0.48,1.07-1.07
		C65.26,70.96,64.78,70.49,64.19,70.49"/>
	<path class="st0" d="M70.46,29.09c-0.45-3.21-1.55-5.76-3.26-7.57c-1.54-1.63-3.54-2.6-5.78-2.81c-4.13-0.39-8.37,1.85-10.56,5.32
		c-1.27-2.02-3.26-3.66-5.63-4.59c-2.91-1.13-6-1.01-8.46,0.34c-0.52,0.28-0.71,0.93-0.42,1.45c0.28,0.52,0.93,0.71,1.45,0.42
		c1.91-1.05,4.34-1.13,6.66-0.22c2.57,1,4.59,3.02,5.39,5.4c0.15,0.43,0.55,0.73,1.01,0.73s0.86-0.29,1.01-0.73
		c1.24-3.67,5.44-6.36,9.35-5.99c3.81,0.36,6.4,3.47,7.12,8.56c0.92,6.53-1.82,12.05-6.8,16.43c-4.08,3.59-8.84,5.64-10.68,6.14
		c-0.16-0.04-0.36-0.1-0.63-0.19c-0.56-0.19-1.16,0.11-1.35,0.67c-0.19,0.56,0.11,1.16,0.67,1.35c0.41,0.14,0.77,0.24,1.08,0.31
		c0.08,0.02,0.16,0.03,0.24,0.03c0.08,0,0.16-0.01,0.24-0.03c1.88-0.42,7.24-2.62,11.86-6.68C68.83,42.25,71.42,35.91,70.46,29.09"
		/>
	<path class="st0" d="M71.07,52.53c-0.77-0.82-1.8-1.3-2.93-1.34c-1.12-0.04-2.19,0.36-3.01,1.12l-8.18,7.6
		c-0.61,0.57-1.43,0.85-2.26,0.77c-0.02,0-0.04,0-0.07,0l-14.42-0.42c-0.82-0.02-1.5-0.65-1.58-1.47c-0.02-0.22,0-0.44,0.06-0.66
		c0.13-0.43,0.44-0.79,0.84-0.99l4.83-2.4c2.31-1.07,3.34-3.81,2.29-6.14c-0.55-1.21-1.59-2.13-2.86-2.52
		c-1.02-0.31-2.12-0.26-3.1,0.13c-4.06-3.41-8.41-9.01-7.3-16.85c0.29-2.06,0.88-3.8,1.74-5.17c0.32-0.5,0.17-1.16-0.33-1.47
		c-0.5-0.32-1.16-0.17-1.47,0.33c-1.03,1.62-1.72,3.64-2.05,6.01c-1.17,8.31,3.03,14.31,7.27,18.12l-7.36,3.34
		c-1.6,0.73-2.82,2.11-3.33,3.79l-1.68,5.47c-0.11,0.36-0.28,0.68-0.51,0.95l-1.67,1.97c-0.62-0.38-1.35-0.54-2.08-0.46
		c-0.91,0.1-1.72,0.55-2.28,1.27l-3.62,4.62c-0.36,0.46-0.28,1.14,0.18,1.5c0.46,0.36,1.14,0.28,1.5-0.18l3.62-4.62
		c0.21-0.26,0.5-0.42,0.83-0.46c0.33-0.03,0.65,0.06,0.91,0.28l13.28,11.02c0.51,0.43,0.59,1.17,0.18,1.69l-3.7,4.72
		c-0.36,0.46-0.28,1.14,0.18,1.5c0.2,0.15,0.43,0.23,0.66,0.23c0.32,0,0.63-0.14,0.84-0.41l3.7-4.72c0.93-1.19,0.94-2.79,0.13-3.97
		l2.52-2.99c0.42-0.5,1.01-0.85,1.65-0.96l17.17-3.01c0.97-0.17,1.85-0.61,2.57-1.28l1.39-1.29c0.43-0.4,0.46-1.08,0.06-1.51
		c-0.4-0.43-1.08-0.46-1.51-0.06l-1.39,1.29c-0.41,0.39-0.93,0.64-1.49,0.74l-17.17,3.01c-1.14,0.2-2.18,0.8-2.92,1.69l-2.45,2.9
		l-11.1-9.2l1.64-1.93c0.41-0.49,0.72-1.06,0.91-1.69l1.68-5.47c0.34-1.1,1.13-2,2.18-2.47l8.89-4.04c0.01,0,0.01-0.01,0.01-0.01
		l0.41-0.19c0.56-0.25,1.18-0.29,1.77-0.12c0.69,0.21,1.25,0.71,1.54,1.36c0.57,1.25,0.01,2.74-1.24,3.31
		c-0.01,0.01-0.02,0.01-0.03,0.01l-4.85,2.41c-0.92,0.46-1.63,1.29-1.93,2.27c-0.15,0.49-0.2,1.01-0.14,1.52
		c0.2,1.87,1.77,3.32,3.65,3.37l14.38,0.42c1.42,0.12,2.83-0.37,3.87-1.34l8.18-7.6c0.4-0.38,0.93-0.57,1.48-0.55
		c0.55,0.02,1.06,0.25,1.44,0.66c0.78,0.83,0.73,2.14-0.11,2.92l-4.04,3.76c-0.43,0.4-0.46,1.08-0.06,1.51
		c0.4,0.43,1.08,0.46,1.51,0.06l4.04-3.76C72.55,56.89,72.65,54.23,71.07,52.53"/>
</g>
</svg>
