<?xml version="1.0" encoding="utf-8"?>
<!-- Generator: Adobe Illustrator 23.0.3, SVG Export Plug-In . SVG Version: 6.00 Build 0)  -->
<svg version="1.1" id="Layer_1" xmlns="http://www.w3.org/2000/svg" xmlns:xlink="http://www.w3.org/1999/xlink" x="0px" y="0px"
	 viewBox="0 0 88 91" style="enable-background:new 0 0 88 91;" xml:space="preserve">
<style type="text/css">
	.st0{fill:#58246A;}
</style>
<g>
	<path class="st0" d="M42.07,42.6c0.58,0,1.05,0.47,1.05,1.05c0,0.28-0.11,0.55-0.31,0.74c-0.2,0.2-0.46,0.31-0.74,0.31
		c-0.69,0-1.24,0.56-1.24,1.24c0,0.69,0.56,1.25,1.24,1.25h0.57c0.58,0,1.05,0.47,1.05,1.05c0,0.28-0.11,0.55-0.31,0.74
		c-0.2,0.2-0.46,0.31-0.74,0.31h-1.58c-0.69,0-1.25,0.56-1.25,1.25s0.56,1.24,1.25,1.24c0.58,0,1.05,0.47,1.05,1.05
		c0,0.28-0.11,0.54-0.31,0.74c-0.2,0.2-0.47,0.31-0.75,0.31H39.7c-0.69,0-1.25,0.56-1.25,1.25s0.56,1.25,1.25,1.25
		c0.93,0,1.4,1.13,0.74,1.79c-0.58,0.58-0.27,0.2-17.95,0.31c-0.29,0-0.53-0.24-0.53-0.53c0-1.06-0.86-1.92-1.92-1.92h-1.29v-8.83
		h1.96c0.69,0,1.25-0.56,1.25-1.25v-0.34c0-0.99,0.48-1.92,1.29-2.49l4.77-3.37c0.12-0.08,0.26-0.13,0.4-0.13h5.16v0.47H31.1
		c-0.69,0-1.25,0.56-1.25,1.25s0.56,1.25,1.25,1.25h6.91c0,0,0.01,0,0.01,0H42.07z M36.07,60.98h3.43v1.47h-3.43V60.98z
		 M46.73,68.44c0.81,0.57,1.29,1.5,1.29,2.49v0.33c0,0.01,0,0.01,0,0.02c0,0.01,0,0.01,0,0.02v2.64c0,0.69,0.56,1.24,1.25,1.24
		c0.69,0,1.24-0.56,1.24-1.24v-1.41h0.71v8.83h-1.29c-1.06,0-1.91,0.86-1.91,1.92c0,0.19-0.1,0.32-0.16,0.37
		c-0.06,0.06-0.18,0.15-0.37,0.15h-5.5V77.5c0.66,0.18,1.35,0.28,2.06,0.28c0.69,0,1.25-0.56,1.25-1.25c0-0.69-0.56-1.25-1.25-1.25
		c-2.85,0-5.18-2.32-5.18-5.18v-0.4c0-1.18-0.96-2.14-2.14-2.14s-2.14,0.96-2.14,2.14v2.33c0,1.49-1.21,2.7-2.7,2.7
		c-0.01,0-0.02-0.01-0.02-0.02v-8.14c0-0.91,0.74-1.64,1.64-1.64h8.04c0.15,0,0.28,0.04,0.4,0.13L46.73,68.44z M36.22,82.74
		c0,0.58-0.47,1.05-1.05,1.05h-4.9c-0.58,0-1.05-0.47-1.05-1.05s0.47-1.05,1.05-1.05h4.9C35.75,81.69,36.22,82.16,36.22,82.74
		 M27.87,78.14c0-0.28,0.11-0.54,0.31-0.74c0.2-0.2,0.46-0.31,0.74-0.31h2.12c0.26,0.1,0.55,0.15,0.85,0.15
		c0.43,0,0.84-0.05,1.24-0.15h0.69v0c0.58,0,1.05,0.47,1.05,1.05c0,0.28-0.11,0.54-0.31,0.74c-0.2,0.2-0.46,0.31-0.74,0.31h-4.9
		C28.34,79.19,27.87,78.72,27.87,78.14 M27.34,74.6c-0.58,0-1.05-0.47-1.05-1.05c0-0.28,0.11-0.54,0.31-0.74
		c0.2-0.2,0.47-0.31,0.75-0.31h0.56h1.47v2.1h-0.46H27.34z M27.16,68.21c0.2-0.2,0.46-0.31,0.74-0.31h1.47v2.1H27.9
		c-0.58,0-1.05-0.47-1.05-1.05C26.85,68.67,26.96,68.41,27.16,68.21 M65.14,18.51l9.22-11.69c0.42-0.53,0.49-1.23,0.2-1.84
		C74.27,4.38,73.67,4,72.99,4H34.82c-0.69,0-1.25,0.56-1.25,1.25v5.88c0,0.69,0.56,1.25,1.25,1.25s1.25-0.56,1.25-1.25V6.49h3.43
		v25.29v8.33h-3.43v-24c0-0.69-0.56-1.25-1.25-1.25s-1.25,0.56-1.25,1.25v21.04h-5.16c-0.67,0-1.3,0.2-1.84,0.59l-4.77,3.37
		c-1.22,0.86-2.03,2.17-2.27,3.62h-0.78v-0.04c0-1.33-1.08-2.42-2.42-2.42h-9.1C6.56,42.28,6,42.83,6,43.52s0.56,1.25,1.25,1.25
		h9.02V58.5H7.25C6.56,58.5,6,59.06,6,59.75s0.56,1.24,1.25,1.24h9.1c1.33,0,2.42-1.08,2.42-2.41v-0.04h0.77
		c0.27,1.39,1.5,2.44,2.96,2.44h11.09v1.47h-0.06c-1.87,0-3.46,1.25-3.97,2.96H27.9c-0.95,0-1.84,0.37-2.51,1.04
		c-0.67,0.67-1.04,1.56-1.04,2.51c0,0.73,0.22,1.41,0.6,1.97c-0.04,0.04-0.09,0.08-0.13,0.12c-0.67,0.67-1.04,1.56-1.04,2.5
		c0,1.36,0.77,2.54,1.9,3.14c-0.2,0.45-0.32,0.95-0.32,1.46c0,1.29,0.69,2.41,1.72,3.03c-0.23,0.47-0.37,1-0.37,1.56
		c0,1.95,1.59,3.54,3.54,3.54h3.3v1.51c0,0.69,0.56,1.25,1.25,1.25s1.25-0.56,1.25-1.25v-1.63c1.52-0.4,2.65-1.78,2.65-3.42
		c0-1.29-0.69-2.41-1.72-3.03c0.24-0.48,0.36-1.01,0.36-1.56c0-1.16-0.56-2.19-1.43-2.84c0.51-0.64,0.88-1.39,1.05-2.22
		c0.54,1.28,1.42,2.38,2.52,3.2v11.51c0,0.69,0.56,1.25,1.25,1.25s1.24-0.56,1.24-1.25v-1.51h5.5c0.81,0,1.56-0.31,2.13-0.88
		c0.43-0.43,0.72-0.97,0.83-1.56h0.77v0.04c0,1.33,1.08,2.42,2.42,2.42h9.1c0.69,0,1.25-0.56,1.25-1.25c0-0.69-0.56-1.25-1.25-1.25
		h-9.02v-1.2c0,0,0-0.01,0-0.01c0,0,0-0.01,0-0.01v-11.3c0,0,0-0.01,0-0.01c0,0,0-0.01,0-0.01v-1.2h9.02c0.69,0,1.25-0.56,1.25-1.25
		c0-0.69-0.56-1.25-1.25-1.25h-9.1c-1.33,0-2.42,1.08-2.42,2.41v0.04h-0.79c-0.24-1.45-1.05-2.76-2.27-3.62l-4.77-3.37
		c-0.42-0.3-0.9-0.49-1.41-0.55v-2.34c0.08-0.06,0.15-0.13,0.22-0.2c0.67-0.67,1.04-1.56,1.04-2.51c0-0.56-0.13-1.09-0.36-1.56
		c0.24-0.15,0.47-0.33,0.68-0.53c0.67-0.67,1.04-1.56,1.04-2.5c0-0.52-0.11-1.01-0.31-1.46c0.31-0.17,0.6-0.38,0.86-0.63
		c0.67-0.67,1.04-1.56,1.04-2.51c0-1.04-0.45-1.97-1.16-2.62c0.39-0.58,0.6-1.26,0.6-1.97c0-1.95-1.59-3.54-3.54-3.54h-0.09v-7.09
		h15.13c0.69,0,1.25-0.56,1.25-1.24s-0.56-1.25-1.25-1.25H41.99V6.49h29.47l-8.63,10.94c-0.5,0.64-0.5,1.52,0,2.16l8.63,10.94H62.1
		c-0.69,0-1.25,0.56-1.25,1.25s0.56,1.25,1.25,1.25h10.89c0.67,0,1.28-0.38,1.57-0.98c0.29-0.61,0.22-1.31-0.2-1.84L65.14,18.51z"/>
</g>
</svg>
