<?xml version="1.0" encoding="utf-8"?>
<!-- Generator: Adobe Illustrator 23.0.3, SVG Export Plug-In . SVG Version: 6.00 Build 0)  -->
<svg version="1.1" id="Layer_1" xmlns="http://www.w3.org/2000/svg" xmlns:xlink="http://www.w3.org/1999/xlink" x="0px" y="0px"
	 viewBox="0 0 88 91" style="enable-background:new 0 0 88 91;" xml:space="preserve">
<style type="text/css">
	.st0{fill:none;stroke:#58246A;stroke-width:2;stroke-linejoin:round;stroke-miterlimit:10;}
</style>
<g>
	<path class="st0" d="M81.62,18.88c-3.26,3.26-8.53,8.53-11.66,11.67c-1.31,1.3-2.16,2.15-2.16,2.15s3.51,3.51,4.96,4.97
		c1.45,1.45-1.14,1.38-1.14,1.38l-19.45,1.84c0,0-1.57,0.13-1.57-1.4c0-2.09,2.45-19.52,2.45-19.52s-0.01-2.65,1.76-0.89
		c1.76,1.77,4.58,4.58,4.58,4.58s0.77-0.76,1.94-1.94c2.86-2.85,7.83-7.83,11.14-11.13C73.96,14.65,77.38,17.77,81.62,18.88z
		 M19.97,80.52c3.19-3.18,8.93-8.93,12.26-12.26c1.3-1.31,2.16-2.16,2.16-2.16s3.51,3.52,4.97,4.97c1.45,1.44,1.38-1.16,1.38-1.16
		l1.83-19.44c0,0,0.13-1.57-1.39-1.57c-2.09,0-19.53,2.45-19.53,2.45s-2.65-0.01-0.88,1.76c1.77,1.76,4.58,4.57,4.58,4.57
		s-0.76,0.77-1.95,1.95c-3.24,3.23-9.19,9.2-12.34,12.35C15.25,73.2,18.58,76.4,19.97,80.52z M52.05,70.24c0,0-0.01,2.66,1.76,0.89
		c1.76-1.76,4.59-4.58,4.59-4.58s0.76,0.76,1.93,1.94c3.12,3.12,8.77,8.77,12,12c1.53-4.05,4.97-7.17,9.22-8.23
		c-3.1-3.11-9.12-9.14-12.58-12.59c-1.31-1.31-2.17-2.16-2.17-2.16s3.51-3.52,4.96-4.96c1.45-1.45-1.15-1.38-1.15-1.38l-19.44-1.84
		c0,0-1.57-0.11-1.57,1.4C49.6,52.8,52.05,70.24,52.05,70.24z M11.25,19.27c3.28,3.28,8.3,8.31,11.34,11.35
		c1.31,1.31,2.16,2.16,2.16,2.16s-3.5,3.51-4.96,4.96c-1.45,1.44,1.15,1.38,1.15,1.38l19.45,1.84c0,0,1.58,0.13,1.58-1.39
		c0-2.08-2.46-19.52-2.46-19.52s0-2.65-1.76-0.89c-1.76,1.78-4.59,4.59-4.59,4.59s-0.76-0.77-1.94-1.95
		c-2.97-2.97-8.21-8.2-11.49-11.49C18.53,14.5,15.35,17.85,11.25,19.27z"/>
</g>
</svg>
