<?xml version="1.0" encoding="utf-8"?>
<!-- Generator: Adobe Illustrator 23.0.3, SVG Export Plug-In . SVG Version: 6.00 Build 0)  -->
<svg version="1.1" id="Layer_1" xmlns="http://www.w3.org/2000/svg" xmlns:xlink="http://www.w3.org/1999/xlink" x="0px" y="0px"
	 viewBox="0 0 88 91" style="enable-background:new 0 0 88 91;" xml:space="preserve">
<style type="text/css">
	.st0{fill:#EFEFF4;}
</style>
<g>
	<path class="st0" d="M36.68,46.35h2.5v5.01h-2.5V46.35z M34.17,52.61c0,0.69,0.56,1.25,1.25,1.25h5.01c0.69,0,1.25-0.56,1.25-1.25
		v-7.51c0-0.69-0.56-1.25-1.25-1.25h-5.01c-0.69,0-1.25,0.56-1.25,1.25V52.61z"/>
	<path class="st0" d="M36.68,31.32h2.5v5.01h-2.5V31.32z M35.42,38.84h5.01c0.69,0,1.25-0.56,1.25-1.25v-7.51
		c0-0.69-0.56-1.25-1.25-1.25h-5.01c-0.69,0-1.25,0.56-1.25,1.25v7.51C34.17,38.27,34.73,38.84,35.42,38.84"/>
	<path class="st0" d="M26.05,29.89l18.14-10.88l18.13,10.88c0.2,0.12,0.42,0.18,0.64,0.18c0.43,0,0.84-0.22,1.07-0.61
		c0.36-0.59,0.16-1.36-0.43-1.72l-18.17-10.9V8.79h6.26v2.5h-3.76c-0.69,0-1.25,0.56-1.25,1.25c0,0.69,0.56,1.25,1.25,1.25h5.01
		c0.69,0,1.25-0.56,1.25-1.25V7.54c0-0.69-0.56-1.25-1.25-1.25h-8.76c-0.69,0-1.25,0.56-1.25,1.25v9.31l-18.17,10.9
		c-0.59,0.36-0.78,1.12-0.43,1.72C24.69,30.06,25.46,30.25,26.05,29.89"/>
	<path class="st0" d="M20.4,53.86c0.69,0,1.25-0.56,1.25-1.25v-7.51c0-0.69-0.56-1.25-1.25-1.25h-5.01c-0.69,0-1.25,0.56-1.25,1.25
		v2.5c0,0.69,0.56,1.25,1.25,1.25s1.25-0.56,1.25-1.25v-1.25h2.5v6.26C19.15,53.3,19.71,53.86,20.4,53.86"/>
	<path class="st0" d="M29.16,70.13V33.83c0-0.69-0.56-1.25-1.25-1.25s-1.25,0.56-1.25,1.25v36.31c0,0.69,0.56,1.25,1.25,1.25
		S29.16,70.83,29.16,70.13"/>
	<path class="st0" d="M36.68,61.37h6.26v5.01c-0.69,0-1.25,0.56-1.25,1.25c0,0.69,0.56,1.25,1.25,1.25v5.01h-6.26V61.37z
		 M45.44,68.88c0.69,0,1.25-0.56,1.25-1.25c0-0.69-0.56-1.25-1.25-1.25v-5.01h6.26v12.52h-6.26V68.88z M22.9,76.39h42.57
		c0.69,0,1.25-0.56,1.25-1.25s-0.56-1.25-1.25-1.25H54.2V61.37h1.25c0.69,0,1.25-0.56,1.25-1.25c0-0.69-0.56-1.25-1.25-1.25H32.92
		c-0.69,0-1.25,0.56-1.25,1.25c0,0.69,0.56,1.25,1.25,1.25h1.25v12.52H22.9c-0.69,0-1.25,0.56-1.25,1.25S22.21,76.39,22.9,76.39"/>
	<path class="st0" d="M71.73,67.63h-2.5v-5.01h2.5V67.63z M72.98,60.12h-5.01c-0.69,0-1.25,0.56-1.25,1.25v7.51
		c0,0.69,0.56,1.25,1.25,1.25h5.01c0.69,0,1.25-0.56,1.25-1.25v-7.51C74.24,60.68,73.67,60.12,72.98,60.12"/>
	<path class="st0" d="M71.73,52.61h-2.5V47.6h2.5V52.61z M72.98,45.09h-5.01c-0.69,0-1.25,0.56-1.25,1.25v7.51
		c0,0.69,0.56,1.25,1.25,1.25h5.01c0.69,0,1.25-0.56,1.25-1.25v-7.51C74.24,45.66,73.67,45.09,72.98,45.09"/>
	<path class="st0" d="M70.48,78.9H17.9c-0.69,0-1.25,0.56-1.25,1.25c0,0.69,0.56,1.25,1.25,1.25h52.58c0.69,0,1.25-0.56,1.25-1.25
		C71.73,79.46,71.17,78.9,70.48,78.9"/>
	<path class="st0" d="M80.5,33.83c-0.69,0-1.25,0.56-1.25,1.25v1.25H65.47c-0.69,0-1.25,0.56-1.25,1.25c0,0.69,0.56,1.25,1.25,1.25
		h13.77v41.32c0,0.69,0.56,1.25,1.25,1.25c0.69,0,1.25-0.56,1.25-1.25V35.08C81.75,34.39,81.19,33.83,80.5,33.83"/>
	<path class="st0" d="M49.2,46.35h2.5v5.01h-2.5V46.35z M46.69,52.61c0,0.69,0.56,1.25,1.25,1.25h5.01c0.69,0,1.25-0.56,1.25-1.25
		v-7.51c0-0.69-0.56-1.25-1.25-1.25h-5.01c-0.69,0-1.25,0.56-1.25,1.25V52.61z"/>
	<path class="st0" d="M12.89,71.39c-2.07,0-3.76-1.68-3.76-3.76c0-6.24,1.68-13.77,3.76-13.77c2.08,0,3.76,7.53,3.76,13.77
		C16.65,69.7,14.96,71.39,12.89,71.39 M19.15,67.63c0-0.16-0.07-16.28-6.26-16.28c-6.19,0-6.26,16.11-6.26,16.28
		c0,3.02,2.16,5.55,5.01,6.13v6.39c0,0.69,0.56,1.25,1.25,1.25s1.25-0.56,1.25-1.25v-6.39C16.99,73.18,19.15,70.65,19.15,67.63"/>
	<path class="st0" d="M61.72,70.13V32.58c0-0.69-0.56-1.25-1.25-1.25c-0.69,0-1.25,0.56-1.25,1.25v37.56c0,0.69,0.56,1.25,1.25,1.25
		C61.16,71.39,61.72,70.83,61.72,70.13"/>
	<path class="st0" d="M49.2,31.32h2.5v5.01h-2.5V31.32z M47.94,38.84h5.01c0.69,0,1.25-0.56,1.25-1.25v-7.51
		c0-0.69-0.56-1.25-1.25-1.25h-5.01c-0.69,0-1.25,0.56-1.25,1.25v7.51C46.69,38.27,47.25,38.84,47.94,38.84"/>
	<path class="st0" d="M7.88,50.1c0.69,0,1.25-0.56,1.25-1.25V38.83h13.77c0.69,0,1.25-0.56,1.25-1.25c0-0.69-0.56-1.25-1.25-1.25
		H9.13v-1.25c0-0.69-0.56-1.25-1.25-1.25s-1.25,0.56-1.25,1.25v13.77C6.63,49.54,7.19,50.1,7.88,50.1"/>
</g>
</svg>
