<?xml version="1.0" encoding="utf-8"?>
<!-- Generator: Adobe Illustrator 23.0.3, SVG Export Plug-In . SVG Version: 6.00 Build 0)  -->
<svg version="1.1" id="Layer_1" xmlns="http://www.w3.org/2000/svg" xmlns:xlink="http://www.w3.org/1999/xlink" x="0px" y="0px"
	 viewBox="0 0 88 91" style="enable-background:new 0 0 88 91;" xml:space="preserve">
<style type="text/css">
	.st0{fill:#58246A;}
</style>
<g>
	<path class="st0" d="M68.27,40.06c-0.62-0.25-1.33,0.05-1.58,0.67c-0.76,1.88-2.57,3.1-4.6,3.1c-1.33,0-2.57-0.52-3.51-1.46
		c-0.47-0.47-0.84-1.03-1.09-1.64c-0.25-0.62-0.96-0.92-1.58-0.67c-0.62,0.25-0.92,0.96-0.67,1.58c0.37,0.92,0.92,1.74,1.62,2.45
		c1.4,1.4,3.26,2.17,5.23,2.17c3.03,0,5.72-1.81,6.85-4.61C69.19,41.02,68.89,40.31,68.27,40.06"/>
	<path class="st0" d="M54.44,30.96c-0.67,0-1.22,0.54-1.22,1.22v0.74c0,0.67,0.54,1.21,1.22,1.21c0.67,0,1.21-0.54,1.21-1.21v-0.74
		C55.66,31.51,55.11,30.96,54.44,30.96"/>
	<path class="st0" d="M69.72,30.96c-0.67,0-1.22,0.54-1.22,1.22v0.74c0,0.67,0.54,1.21,1.22,1.21c0.67,0,1.21-0.54,1.21-1.21v-0.74
		C70.94,31.51,70.39,30.96,69.72,30.96"/>
	<path class="st0" d="M44.52,42.19v-0.37c0.36,0.09,0.74,0.13,1.11,0.13h0.1c0.69,5.62,4.27,10.54,9.41,12.93v1.63l-0.88,1.1H39.24
		c-0.07,0-0.13-0.06-0.13-0.12v-6.87c0-1.06-0.86-1.92-1.92-1.92h-0.05v-3.98h4.83C43.38,44.73,44.52,43.59,44.52,42.19
		 M55.72,61.97l4.37,5.33c0.04,0.04,0.08,0.09,0.12,0.13l-5.3,3.33l-1.11-7.43c-0.1-0.67,0.08-1.36,0.51-1.89l0.84-1.04
		C55.16,60.97,55.36,61.52,55.72,61.97 M57.57,55.8c2.94,0.83,6.1,0.83,9.03,0v4.54c0,0.03-0.01,0.06-0.03,0.09l-4.37,5.33
		c-0.06,0.07-0.16,0.07-0.22,0l-4.37-5.33c-0.02-0.03-0.03-0.06-0.03-0.09V55.8z M68.44,61.97c0.36-0.44,0.57-1,0.58-1.57l0.83,1.04
		c0.42,0.53,0.61,1.22,0.51,1.89l-1.11,7.43l-5.3-3.34c0.04-0.04,0.08-0.08,0.12-0.13L68.44,61.97z M35.95,42.3
		c-0.01,0-0.01,0-0.01,0h-6.75c-0.01,0-0.01,0-0.02,0h-7.58c-0.06,0-0.1-0.05-0.1-0.1v-6.02c0,0,0,0,0-0.01c0,0,0,0,0-0.01v-6.02
		c0-0.06,0.05-0.11,0.1-0.11h2.23c0.4,2.18,2.31,3.83,4.6,3.83h8.27c2.29,0,4.2-1.65,4.6-3.83h0.69c0.06,0,0.1,0.05,0.1,0.11v12.06
		c0,0.06-0.05,0.1-0.1,0.1H35.95z M34.72,48.7H30.4v-3.97h4.32V48.7z M26.17,28.82C26.17,28.82,26.17,28.81,26.17,28.82
		c0-0.01,0-0.01,0-0.01v-1.35l0,0l12.77,0v1.72c0,1.24-1.01,2.25-2.25,2.25h-8.27c-1.24,0-2.25-1.01-2.25-2.25V28.82z M78.53,39.53
		h-1.21c-0.65,0-1.18,0.51-1.21,1.15c-0.11,2.11-0.68,4.12-1.69,5.98c-0.44,0.81,0.15,1.8,1.07,1.8c0.43,0,0.85-0.23,1.07-0.63
		c1-1.84,1.63-3.8,1.88-5.86h0.1c2.64,0,4.78-2.14,4.78-4.78v-1.69c0-2.63-2.13-4.77-4.75-4.78V24.2c0,0,0-0.01,0-0.01v-5.21
		c0-8.02-6.53-14.54-14.54-14.54H42.03c-0.67,0-1.21,0.54-1.21,1.21v5.26c0,0.67,0.54,1.22,1.21,1.22s1.22-0.54,1.22-1.22V6.86
		h20.77c6.68,0,12.12,5.43,12.12,12.11v4H50.84c-1.22,0-2.37-0.29-3.39-0.79c-0.04-0.03-0.09-0.05-0.14-0.07
		c-2.32-1.22-3.94-3.6-4.06-6.4c-0.03-0.67-0.6-1.19-1.27-1.16c-0.67,0.03-1.19,0.6-1.16,1.27c0.15,3.46,2.03,6.43,4.78,8.11
		c0,0.08,0,0.17,0,0.25v6.53c-0.37,0-0.73,0.05-1.09,0.13v-0.71c0-1.4-1.14-2.53-2.53-2.53h-0.61v-0.14c0-1.34-1.09-2.43-2.43-2.43
		H26.17c-1.34,0-2.43,1.09-2.43,2.43v0.14h-2.15c-1.4,0-2.53,1.14-2.53,2.53v4.82h-0.55c-2.27,0-4.12,1.85-4.12,4.12v5.45
		c0,0.94-0.76,1.71-1.7,1.71c-0.94,0-1.7-0.76-1.7-1.71v-5.45c0-2.27-1.85-4.12-4.12-4.12H5.73c-0.67,0-1.21,0.54-1.21,1.21
		c0,0.67,0.54,1.22,1.21,1.22h1.13c0.93,0,1.69,0.76,1.69,1.69v5.45c0,2.28,1.85,4.13,4.13,4.13s4.13-1.85,4.13-4.13v-5.45
		c0-0.93,0.76-1.69,1.69-1.69h0.55v4.82c0,1.4,1.14,2.53,2.53,2.53h6.38v3.98h-0.05c-1.06,0-1.92,0.86-1.92,1.92v13.57
		c0,3.6,2.93,6.53,6.53,6.53h1.05c0.67,0,1.21-0.54,1.21-1.21c0-0.67-0.54-1.22-1.21-1.22h-1.05c-2.26,0-4.1-1.84-4.1-4.1V51.13
		h8.25v6.36c0,1.41,1.15,2.55,2.55,2.55h13.08c-0.78,1.04-1.11,2.35-0.92,3.64l1.2,8.04c0.1,0.68,0.53,1.25,1.15,1.54
		c0.27,0.13,0.56,0.19,0.85,0.19c0.37,0,0.75-0.11,1.08-0.31l6.41-4.03l6.41,4.03c0.58,0.36,1.3,0.41,1.92,0.12
		c0.62-0.29,1.05-0.86,1.16-1.54l1.2-8.04c0.19-1.29-0.14-2.6-0.92-3.64h0.06c4.57,0,8.29,3.72,8.29,8.29v16.58h-3.96v-9.02
		c0-0.67-0.54-1.21-1.22-1.21c-0.67,0-1.21,0.54-1.21,1.21v9.02H50.35V70.93c0-1.45-1.18-2.63-2.63-2.63h-9.27
		c-0.67,0-1.22,0.54-1.22,1.22c0,0.67,0.54,1.21,1.22,1.21h9.27c0.11,0,0.2,0.09,0.2,0.2v14.56c0,1.03,0.84,1.86,1.86,1.86h30.99
		c1.03,0,1.86-0.84,1.86-1.86V68.34c0-5.91-4.81-10.72-10.72-10.72h-2l-0.88-1.1v-1.63c1.59-0.74,3.05-1.72,4.34-2.93
		c0.49-0.46,0.51-1.23,0.05-1.72c-0.46-0.49-1.23-0.51-1.72-0.05c-1.27,1.2-2.74,2.13-4.35,2.78c-1.47,0.59-3.01,0.93-4.59,1.01
		c-0.76,0.04-1.44,0.01-2.13-0.06c-1.31-0.13-2.6-0.45-3.82-0.95h0c-5.04-2.04-8.48-6.86-8.76-12.29c-0.03-0.65-0.57-1.15-1.21-1.15
		h-1.21c-0.39,0-0.77-0.1-1.11-0.28v-5.82c0.34-0.18,0.72-0.28,1.11-0.28h1.19c0.67,0,1.22-0.54,1.22-1.21V25
		c0.89,0.26,1.83,0.4,2.81,0.4h25.29v6.52c0,0.67,0.54,1.21,1.21,1.21h1.19c1.3,0,2.35,1.06,2.35,2.35v1.69
		C80.88,38.47,79.83,39.53,78.53,39.53"/>
	<path class="st0" d="M18,22.06l-2.92-2.92c-0.47-0.47-1.24-0.47-1.72,0c-0.47,0.47-0.47,1.24,0,1.72l2.92,2.92
		c0.24,0.24,0.55,0.35,0.86,0.35c0.31,0,0.62-0.12,0.86-0.35C18.47,23.3,18.47,22.54,18,22.06"/>
	<path class="st0" d="M14.7,26.52l-3.99-1.07c-0.65-0.17-1.31,0.21-1.49,0.86c-0.17,0.65,0.21,1.31,0.86,1.49
		c4.23,1.12,4.02,1.11,4.31,1.11c0.54,0,1.03-0.36,1.17-0.9C15.73,27.36,15.35,26.7,14.7,26.52"/>
	<path class="st0" d="M23.09,19.85l-1.07-3.99c-0.17-0.65-0.84-1.03-1.49-0.86c-0.65,0.17-1.03,0.84-0.86,1.49l1.07,3.99
		c0.15,0.54,0.64,0.9,1.17,0.9c0.1,0,0.21-0.01,0.32-0.04C22.88,21.16,23.26,20.5,23.09,19.85"/>
</g>
</svg>
