<?xml version="1.0" encoding="utf-8"?>
<!-- Generator: Adobe Illustrator 23.0.3, SVG Export Plug-In . SVG Version: 6.00 Build 0)  -->
<svg version="1.1" id="Layer_1" xmlns="http://www.w3.org/2000/svg" xmlns:xlink="http://www.w3.org/1999/xlink" x="0px" y="0px"
	 viewBox="0 0 88 91" style="enable-background:new 0 0 88 91;" xml:space="preserve">
<style type="text/css">
	.st0{fill:#58246A;}
</style>
<g>
	<path class="st0" d="M57.74,70.98v-9.94c2.65,2.71,4.17,4.87,5,6.32c1.56,2.7,1.7,4.42,1.54,5.01c-0.06,0.01-0.14,0.02-0.27,0.02
		h-4.18C59.39,71.65,58.63,71.12,57.74,70.98 M57.75,80.2c0,0.25-0.2,0.45-0.45,0.45h-0.79h-0.03h-0.74c-0.48,0-0.87-0.39-0.87-0.87
		V74.3c0-0.48,0.39-0.87,0.87-0.87h1.56c0.25,0,0.45,0.2,0.45,0.45V80.2z M72.22,65.48c-0.27-0.63-1-0.93-1.64-0.66
		c-0.63,0.27-0.93,1-0.66,1.64c1.66,3.89,1.35,6.62,0.8,8.22c-0.65,1.9-2.05,3.35-3.91,4.06c-0.87,0.33-1.81,0.5-2.8,0.5h-3.77
		v-4.35h3.77c1.69,0,2.35-0.89,2.61-1.63c0.27-0.79,0.64-3.06-1.72-7.14c-1.12-1.94-3.34-5.06-7.56-8.92
		c-0.36-0.33-0.89-0.42-1.34-0.22c-0.45,0.2-0.74,0.65-0.74,1.14v12.87c-1.62,0.24-2.87,1.63-2.87,3.32v5.48
		c0,1.69,1.25,3.08,2.87,3.32v2.69c0,0.69,0.56,1.25,1.25,1.25s1.25-0.56,1.25-1.25V83.1c0.88-0.13,1.63-0.65,2.07-1.38h4.2
		c0.76,0,1.49-0.08,2.21-0.23l0.62,4.47c0.09,0.62,0.62,1.07,1.23,1.07c0.06,0,0.11,0,0.17-0.01c0.68-0.1,1.16-0.72,1.06-1.4
		l-0.69-4.97c2.11-1.07,3.68-2.88,4.46-5.17C73.78,73.47,74.19,70.1,72.22,65.48"/>
	<path class="st0" d="M49.15,32.33c-0.64-0.26-1.36,0.05-1.62,0.69c-0.61,1.51-2.07,2.49-3.7,2.49c-1.06,0-2.07-0.42-2.82-1.17
		c-0.38-0.38-0.68-0.82-0.87-1.32c-0.26-0.64-0.98-0.95-1.62-0.69c-0.64,0.26-0.95,0.98-0.69,1.62c0.33,0.81,0.8,1.53,1.42,2.15
		c1.23,1.22,2.85,1.9,4.58,1.9c2.65,0,5.01-1.59,6.01-4.04C50.1,33.31,49.79,32.59,49.15,32.33"/>
	<path class="st0" d="M37.36,24.6c-0.69,0-1.25,0.56-1.25,1.25v0.62c0,0.69,0.56,1.25,1.25,1.25s1.25-0.56,1.25-1.25v-0.62
		C38.6,25.16,38.04,24.6,37.36,24.6"/>
	<path class="st0" d="M50.3,24.6c-0.69,0-1.25,0.56-1.25,1.25v0.62c0,0.69,0.56,1.25,1.25,1.25c0.69,0,1.25-0.56,1.25-1.25v-0.62
		C51.55,25.16,50.99,24.6,50.3,24.6"/>
	<path class="st0" d="M44.88,70.03h-2.09l-3.73-6.2l1.17-1.37h7.22l1.17,1.37L44.88,70.03z M51.09,62.9l-2.12-2.49
		c-0.24-0.28-0.58-0.44-0.95-0.44h-8.37c-0.37,0-0.71,0.16-0.95,0.44l-2.12,2.49c-0.35,0.41-0.4,0.99-0.12,1.45l4.56,7.57
		c0.23,0.37,0.63,0.6,1.07,0.6h3.5c0.44,0,0.84-0.23,1.07-0.6l4.56-7.57C51.48,63.89,51.43,63.31,51.09,62.9"/>
	<path class="st0" d="M59.18,49.73c-0.14-0.12-0.29-0.23-0.44-0.34c0.09-0.44-0.07-0.91-0.44-1.21c-0.54-0.43-1.32-0.34-1.75,0.19
		l-2.62,3.28c-0.32,0.41-0.81,0.64-1.33,0.64h-3.15c0.39-0.82,0.6-1.73,0.6-2.67v-3.46h4.17c3.74,0,6.99,2.58,7.92,6.14
		C61.19,51.44,60.21,50.58,59.18,49.73 M43.83,44.12c-1.58,0-3.12-0.32-4.48-0.89c-4.14-1.72-6.96-5.72-7.19-10.18
		c-0.03-0.66-0.58-1.18-1.24-1.18h-2.97c-0.98,0-1.78-0.8-1.78-1.77v-1.43c0-0.98,0.8-1.77,1.78-1.77h2.95
		c0.69,0,1.25-0.56,1.25-1.24v-4.15h9.61c5.26,0,9.81-3.47,11.25-8.41c1.61,1.85,2.51,4.24,2.51,6.72v5.85
		c0,0.69,0.56,1.24,1.25,1.24h2.95c0.98,0,1.78,0.8,1.78,1.77v1.43c0,0.98-0.8,1.77-1.78,1.77h-2.97c-0.66,0-1.21,0.52-1.24,1.18
		c-0.16,2.99-1.44,5.78-3.61,7.85c-1.04,1-2.25,1.78-3.58,2.33C46.89,43.82,45.38,44.12,43.83,44.12 M47.54,49.62
		c0,2.06-1.67,3.71-3.71,3.71c-2.01,0-3.71-1.63-3.71-3.71v-3.46c0.32,0,1.66,0.45,3.71,0.45c1.2,0,2.38-0.15,3.54-0.45
		c0,0,0.01,0,0.01,0h0.17V49.62z M35.07,52.29c-0.52,0-1.01-0.23-1.33-0.64l-2.62-3.28c-0.43-0.54-1.21-0.63-1.75-0.19
		c-0.38,0.3-0.53,0.77-0.44,1.22c-0.15,0.11-0.3,0.22-0.44,0.34c-1.03,0.85-2.01,1.71-2.94,2.57c0.92-3.56,4.17-6.13,7.92-6.13h4.17
		v3.46c0,0.94,0.21,1.85,0.6,2.67H35.07z M23.65,72.39c-0.13,0-0.22-0.01-0.27-0.02c-0.15-0.6-0.01-2.32,1.54-5.01
		c0.83-1.44,2.34-3.61,5-6.32v9.94c-0.89,0.14-1.65,0.67-2.09,1.41H23.65z M30.36,73.43h1.56c0.48,0,0.87,0.39,0.87,0.87v5.48
		c0,0.48-0.39,0.87-0.87,0.87h-0.74h-0.03h-0.79c-0.25,0-0.45-0.2-0.45-0.45v-6.31C29.91,73.64,30.11,73.43,30.36,73.43 M69.6,60.76
		c-1.23-1.81-2.74-3.67-4.51-5.53l-0.33-2.35c-0.73-5.25-5.27-9.2-10.57-9.2h-1.73c0.39-0.3,0.77-0.63,1.13-0.97
		c2.35-2.24,3.84-5.17,4.27-8.35h1.84c2.35,0,4.27-1.91,4.27-4.26v-1.43c0-1.62-0.91-3.03-2.24-3.75V12.92
		c0-3.98-3.24-7.22-7.22-7.22h-1.65C51.62,3.44,49.2,2,46.61,2h-8.46c-2.84,0-5.6,0.99-7.78,2.79c-0.53,0.44-0.61,1.22-0.17,1.75
		c0.44,0.53,1.22,0.6,1.75,0.17c1.74-1.43,3.94-2.22,6.2-2.22h8.46c3.3,0,4.32,2.94,4.38,3c0.21,0.43,0.64,0.7,1.12,0.7h2.42
		c2.61,0,4.73,2.12,4.73,4.73v11.47h-1.24v-4.6c0-3.59-1.53-7.03-4.19-9.44c-0.48-0.44-1.17-0.58-1.78-0.37
		c-0.62,0.21-1.07,0.74-1.18,1.39c-0.78,4.42-4.6,7.62-9.1,7.62H30.9c-0.69,0-1.25,0.56-1.25,1.25v4.15h-1.24V14.23
		c0-1.38,0.28-2.72,0.84-3.96c0.28-0.63,0-1.36-0.63-1.65c-0.63-0.28-1.36,0-1.65,0.63c-0.7,1.57-1.06,3.25-1.06,4.98V24.9
		c-1.33,0.72-2.24,2.13-2.24,3.75v1.43c0,2.35,1.91,4.26,4.27,4.26h1.84c0.51,3.71,2.49,7.06,5.41,9.32h-1.73
		c-5.3,0-9.84,3.96-10.57,9.2l-0.32,2.35c-2.38,2.51-4.31,5.02-5.72,7.47c-3.46,5.98-3.14,10.26-2.27,12.79
		c0.79,2.29,2.36,4.1,4.46,5.17l-0.69,4.97c-0.09,0.68,0.38,1.31,1.06,1.4c0.06,0.01,0.12,0.01,0.17,0.01
		c0.61,0,1.15-0.45,1.23-1.08l0.62-4.47c0.71,0.15,1.45,0.23,2.21,0.23h4.2c0.44,0.73,1.19,1.25,2.07,1.38v2.69
		c0,0.69,0.56,1.25,1.25,1.25s1.24-0.56,1.24-1.25V83.1c1.62-0.24,2.87-1.64,2.87-3.32V74.3c0-1.69-1.25-3.08-2.87-3.32V58.11
		c0-0.49-0.29-0.94-0.74-1.14s-0.98-0.11-1.34,0.22c-4.22,3.86-6.44,6.98-7.56,8.92c-2.37,4.09-1.99,6.35-1.72,7.15
		c0.26,0.74,0.92,1.63,2.61,1.63h3.77v4.35h-3.77c-0.99,0-1.93-0.17-2.8-0.5c-1.87-0.72-3.26-2.16-3.91-4.06
		c-0.71-2.05-0.92-5.57,2.07-10.74c1.37-2.36,3.26-4.81,5.64-7.28c0,0,0,0,0,0c0,0,0,0,0,0c1.59-1.65,3.41-3.34,5.43-5.01
		c0.1-0.08,0.2-0.15,0.3-0.23l1.43,1.78c0.8,1,1.99,1.57,3.27,1.57h5.31c1.02,0.69,2.2,1.05,3.45,1.05c1.25,0,2.43-0.36,3.45-1.05
		h5.31c1.28,0,2.47-0.57,3.28-1.57l1.43-1.78c0.1,0.07,0.2,0.15,0.3,0.23c2.02,1.67,3.84,3.36,5.43,5.01c0,0,0,0,0,0l0,0
		c1.78,1.86,3.3,3.71,4.52,5.5c0.24,0.36,0.63,0.55,1.03,0.55c0.24,0,0.48-0.07,0.7-0.21C69.84,62.1,69.99,61.33,69.6,60.76"/>
</g>
</svg>
