<?xml version="1.0" encoding="utf-8"?>
<!-- Generator: Adobe Illustrator 23.0.3, SVG Export Plug-In . SVG Version: 6.00 Build 0)  -->
<svg version="1.1" id="Layer_1" xmlns="http://www.w3.org/2000/svg" xmlns:xlink="http://www.w3.org/1999/xlink" x="0px" y="0px"
	 viewBox="0 0 88 91" style="enable-background:new 0 0 88 91;" xml:space="preserve">
<style type="text/css">
	.st0{fill:#58246A;}
</style>
<g>
	<path class="st0" d="M30.54,54.22c1.03-0.52,2.28-0.13,2.83,0.89l3.91,7.24c0.3,0.56,0.94,0.84,1.56,0.68
		c0.61-0.15,1.05-0.71,1.05-1.34V51.12c0-0.77-0.62-1.38-1.38-1.38c-0.76,0-1.38,0.62-1.38,1.38v5.09l-1.31-2.42
		c-1.27-2.35-4.13-3.25-6.51-2.04c-2.04,1.03-3.09,3.3-2.55,5.52l2.53,10.5c0.59,2.46,1.65,4.73,3.14,6.77l4.96,6.79
		c0.27,0.37,0.69,0.57,1.12,0.57c0.28,0,0.57-0.09,0.81-0.27c0.62-0.45,0.75-1.32,0.3-1.93l-4.96-6.79
		c-1.27-1.74-2.18-3.69-2.68-5.79l-2.53-10.5C29.19,55.65,29.65,54.67,30.54,54.22"/>
	<path class="st0" d="M61.79,48.32c-0.82,0-1.59,0.21-2.26,0.58c-0.68-1.77-2.4-3.03-4.4-3.03c-0.86,0-1.68,0.24-2.37,0.64
		c-0.75-1.62-2.38-2.75-4.28-2.75c-0.69,0-1.35,0.15-1.94,0.42v-6.62c0-2.6-2.11-4.71-4.71-4.71c-2.6,0-4.71,2.11-4.71,4.71v2.4
		c0,0.76,0.62,1.38,1.38,1.38c0.76,0,1.38-0.62,1.38-1.38v-2.4c0-1.07,0.87-1.94,1.94-1.94c1.07,0,1.94,0.87,1.94,1.94V57.1
		c0,0.76,0.62,1.38,1.38,1.38c0.76,0,1.39-0.62,1.39-1.38v-8.62c0-1.07,0.87-1.94,1.94-1.94c1.07,0,1.94,0.87,1.94,1.94v8.62
		c0,0.76,0.62,1.38,1.38,1.38c0.76,0,1.38-0.62,1.38-1.38v-6.51c0-1.07,0.87-1.94,1.94-1.94s1.94,0.87,1.94,1.94v6.51
		c0,0.76,0.62,1.38,1.38,1.38c0.76,0,1.38-0.62,1.38-1.38v-4.06c0-1.07,0.87-1.94,1.94-1.94c1.07,0,1.94,0.87,1.94,1.94v11.68
		c0,3.11-0.47,6.2-1.4,9.17l-1.95,6.23c-0.23,0.73,0.18,1.51,0.91,1.74c0.14,0.04,0.28,0.06,0.41,0.06c0.59,0,1.14-0.38,1.32-0.97
		l1.95-6.23c1.01-3.24,1.53-6.6,1.53-9.99V53.03C66.5,50.44,64.38,48.32,61.79,48.32"/>
	<path class="st0" d="M74.71,21.94c-0.55,0.53-0.8,1.31-0.67,2.06l0.61,3.57l-3.21-1.69c-0.68-0.36-1.49-0.36-2.17,0l-3.21,1.69
		L66.68,24c0.13-0.76-0.12-1.53-0.67-2.06l-2.6-2.53L67,18.89c0.76-0.11,1.41-0.59,1.75-1.27l1.6-3.25l1.61,3.25
		c0.34,0.69,1,1.16,1.75,1.27l3.59,0.52L74.71,21.94z M80.46,18.38c-0.28-0.85-1-1.46-1.88-1.58l-4.24-0.61l-1.9-3.84
		c-0.4-0.8-1.2-1.3-2.09-1.3h0c-0.89,0-1.69,0.5-2.09,1.3l-1.9,3.84l-4.24,0.62c-0.88,0.13-1.6,0.74-1.88,1.59
		c-0.28,0.85-0.05,1.77,0.59,2.39l3.07,2.99l-0.72,4.22c-0.15,0.88,0.21,1.75,0.93,2.28c0.41,0.3,0.89,0.45,1.37,0.45
		c0.37,0,0.74-0.09,1.09-0.27l3.79-1.99l3.79,1.99c0.79,0.42,1.73,0.35,2.45-0.18c0.72-0.52,1.08-1.4,0.93-2.28l-0.72-4.22
		l3.07-2.99C80.51,20.14,80.74,19.23,80.46,18.38"/>
	<path class="st0" d="M49.5,21.94c-0.55,0.53-0.8,1.31-0.67,2.06l0.61,3.57l-3.21-1.69c-0.68-0.36-1.49-0.36-2.17,0l-3.21,1.69
		L41.47,24c0.13-0.76-0.12-1.53-0.67-2.06l-2.6-2.53l3.59-0.52c0.76-0.11,1.41-0.59,1.75-1.27l1.6-3.25l1.61,3.25
		c0.34,0.69,1,1.16,1.76,1.27l3.59,0.52L49.5,21.94z M55.25,18.38c-0.28-0.85-1-1.46-1.88-1.58l-4.24-0.61l-1.9-3.84
		c-0.4-0.8-1.2-1.3-2.09-1.3h0c-0.89,0-1.69,0.5-2.09,1.3l-1.9,3.84l-4.24,0.62c-0.88,0.13-1.6,0.74-1.88,1.59
		c-0.28,0.85-0.05,1.77,0.59,2.39l3.07,2.99l-0.72,4.22c-0.15,0.88,0.21,1.75,0.93,2.28c0.41,0.3,0.89,0.45,1.37,0.45
		c0.37,0,0.74-0.09,1.09-0.27l3.79-1.99l3.79,1.99c0.79,0.42,1.73,0.35,2.45-0.18c0.72-0.52,1.08-1.4,0.93-2.28l-0.72-4.22
		l3.07-2.99C55.3,20.14,55.53,19.23,55.25,18.38"/>
	<path class="st0" d="M24.29,21.94c-0.55,0.53-0.8,1.31-0.67,2.06l0.61,3.57l-3.21-1.69c-0.68-0.36-1.49-0.36-2.17,0l-3.21,1.69
		L16.25,24c0.13-0.76-0.12-1.53-0.67-2.06l-2.6-2.53l3.59-0.52c0.76-0.11,1.42-0.59,1.75-1.27l1.6-3.25l1.61,3.25
		c0.34,0.69,0.99,1.16,1.75,1.27l3.59,0.52L24.29,21.94z M30.04,18.38c-0.28-0.85-1-1.46-1.88-1.58l-4.24-0.61l-1.9-3.84
		c-0.4-0.8-1.2-1.3-2.09-1.3h0c-0.89,0-1.69,0.5-2.09,1.3l-1.9,3.84l-4.24,0.62c-0.88,0.13-1.61,0.74-1.88,1.59
		c-0.28,0.85-0.05,1.76,0.59,2.39l3.07,2.99l-0.72,4.22c-0.15,0.88,0.2,1.75,0.93,2.28c0.41,0.3,0.89,0.45,1.37,0.45
		c0.37,0,0.74-0.09,1.09-0.27l3.79-1.99l3.79,1.99c0.79,0.42,1.73,0.35,2.45-0.18c0.72-0.52,1.08-1.4,0.93-2.28l-0.73-4.22
		l3.07-2.99C30.09,20.14,30.32,19.23,30.04,18.38"/>
	<path class="st0" d="M39.47,44.69c-0.26-0.26-0.61-0.41-0.98-0.41c-0.36,0-0.72,0.15-0.98,0.41c-0.26,0.26-0.41,0.61-0.41,0.98
		c0,0.36,0.15,0.72,0.41,0.98c0.26,0.26,0.61,0.41,0.98,0.41c0.36,0,0.72-0.15,0.98-0.41c0.26-0.26,0.41-0.61,0.41-0.98
		C39.87,45.3,39.73,44.95,39.47,44.69"/>
</g>
</svg>
