<?xml version="1.0" encoding="utf-8"?>
<!-- Generator: Adobe Illustrator 23.0.3, SVG Export Plug-In . SVG Version: 6.00 Build 0)  -->
<svg version="1.1" id="Layer_1" xmlns="http://www.w3.org/2000/svg" xmlns:xlink="http://www.w3.org/1999/xlink" x="0px" y="0px"
	 viewBox="0 0 88 91" style="enable-background:new 0 0 88 91;" xml:space="preserve">
<style type="text/css">
	.st0{fill:#EFEFF4;}
</style>
<g>
	<path class="st0" d="M16.57,59.95c0-4.22,3.43-7.65,7.65-7.65c4.22,0,7.65,3.43,7.65,7.65s-3.43,7.65-7.65,7.65
		C20,67.59,16.57,64.16,16.57,59.95 M61.68,23.01c0,0.68-0.55,1.23-1.23,1.23c-0.68,0-1.23-0.55-1.23-1.23v-5.73
		c0-0.68,0.55-1.23,1.23-1.23c0.68,0,1.23,0.55,1.23,1.23V23.01z M33.57,23.01c0,0.68-0.55,1.23-1.23,1.23
		c-0.68,0-1.23-0.55-1.23-1.23v-5.73c0-0.68,0.55-1.23,1.23-1.23c0.68,0,1.23,0.55,1.23,1.23V23.01z M70.03,19.01h-5.88v-1.73
		c0-2.04-1.66-3.7-3.7-3.7c-2.04,0-3.7,1.66-3.7,3.7v1.73H36.03v-1.73c0-2.04-1.66-3.7-3.7-3.7c-2.04,0-3.7,1.66-3.7,3.7v1.77
		c-0.1-0.03-0.21-0.05-0.33-0.05h-4.91c-3.4,0-6.17,2.77-6.17,6.17v21c0,0.68,0.55,1.23,1.23,1.23c0.68,0,1.23-0.55,1.23-1.23V31.71
		h44.46c0.68,0,1.23-0.55,1.23-1.23c0-0.68-0.55-1.23-1.23-1.23H19.69v-4.07c0-2.04,1.66-3.7,3.7-3.7h4.91
		c0.11,0,0.22-0.02,0.33-0.05v1.59c0,2.04,1.66,3.7,3.7,3.7c2.04,0,3.7-1.66,3.7-3.7v-1.54h20.72v1.54c0,2.04,1.66,3.7,3.7,3.7
		c2.04,0,3.7-1.66,3.7-3.7v-1.54h5.88c2.04,0,3.7,1.66,3.7,3.7v46.86c0,1.22-1,2.22-2.22,2.22s-2.22-1-2.22-2.22v-3.19
		c0-0.68-0.55-1.23-1.23-1.23H53.71c-0.68,0-1.23,0.55-1.23,1.23c0,0.68,0.55,1.23,1.23,1.23h13.11v1.96c0,0.8,0.2,1.56,0.56,2.22
		H17.74c-1.22,0-2.22-1-2.22-2.22v-1.96h27.6c0.68,0,1.23-0.55,1.23-1.23c0-0.68-0.55-1.23-1.23-1.23H30.8
		c2.15-1.86,3.52-4.6,3.52-7.66c0-5.58-4.54-10.11-10.11-10.11c-5.58,0-10.11,4.54-10.11,10.11c0,3.06,1.37,5.81,3.52,7.66h-3.34
		c-0.68,0-1.23,0.55-1.23,1.23v3.19c0,2.58,2.1,4.69,4.69,4.69H71.5c2.58,0,4.69-2.1,4.69-4.69V25.17
		C76.19,21.77,73.43,19.01,70.03,19.01"/>
	<path class="st0" d="M70.8,29.6c-0.23-0.23-0.55-0.36-0.87-0.36c-0.33,0-0.64,0.13-0.87,0.36c-0.23,0.23-0.36,0.55-0.36,0.87
		c0,0.32,0.13,0.64,0.36,0.87c0.23,0.23,0.55,0.36,0.87,0.36c0.32,0,0.64-0.13,0.87-0.36c0.23-0.23,0.36-0.55,0.36-0.87
		C71.17,30.15,71.03,29.83,70.8,29.6"/>
	<path class="st0" d="M49.88,67.97c-0.23-0.23-0.55-0.36-0.87-0.36c-0.32,0-0.64,0.13-0.87,0.36c-0.23,0.23-0.36,0.55-0.36,0.87
		c0,0.33,0.13,0.64,0.36,0.87c0.23,0.23,0.55,0.36,0.87,0.36c0.32,0,0.64-0.13,0.87-0.36c0.23-0.23,0.36-0.55,0.36-0.87
		C50.24,68.52,50.11,68.2,49.88,67.97"/>
	<path class="st0" d="M40.95,57.97c-1.22,0-2.22-1-2.22-2.22c0-1.22,1-2.22,2.22-2.22s2.22,1,2.22,2.22
		C43.17,56.98,42.18,57.97,40.95,57.97 M40.95,51.07c-2.58,0-4.69,2.1-4.69,4.69c0,2.58,2.1,4.69,4.69,4.69
		c2.58,0,4.69-2.1,4.69-4.69C45.64,53.17,43.54,51.07,40.95,51.07"/>
	<path class="st0" d="M52.46,57.97c-1.22,0-2.22-1-2.22-2.22c0-1.22,1-2.22,2.22-2.22c1.22,0,2.22,1,2.22,2.22
		C54.68,56.98,53.69,57.97,52.46,57.97 M52.46,51.07c-2.58,0-4.69,2.1-4.69,4.69c0,2.58,2.1,4.69,4.69,4.69
		c2.58,0,4.69-2.1,4.69-4.69C57.15,53.17,55.05,51.07,52.46,51.07"/>
	<path class="st0" d="M63.97,57.97c-1.22,0-2.22-1-2.22-2.22c0-1.22,1-2.22,2.22-2.22s2.22,1,2.22,2.22
		C66.19,56.98,65.2,57.97,63.97,57.97 M63.97,51.07c-2.58,0-4.69,2.1-4.69,4.69c0,2.58,2.1,4.69,4.69,4.69
		c2.58,0,4.69-2.1,4.69-4.69C68.66,53.17,66.56,51.07,63.97,51.07"/>
	<path class="st0" d="M29.44,45.15c-1.22,0-2.22-1-2.22-2.22c0-1.22,1-2.22,2.22-2.22s2.22,1,2.22,2.22
		C31.66,44.15,30.67,45.15,29.44,45.15 M29.44,38.24c-2.58,0-4.69,2.1-4.69,4.69c0,2.58,2.1,4.69,4.69,4.69s4.69-2.1,4.69-4.69
		C34.13,40.34,32.03,38.24,29.44,38.24"/>
	<path class="st0" d="M52.46,45.15c-1.22,0-2.22-1-2.22-2.22c0-1.22,1-2.22,2.22-2.22c1.22,0,2.22,1,2.22,2.22
		C54.68,44.15,53.69,45.15,52.46,45.15 M52.46,38.24c-2.58,0-4.69,2.1-4.69,4.69c0,2.58,2.1,4.69,4.69,4.69
		c2.58,0,4.69-2.1,4.69-4.69C57.15,40.34,55.05,38.24,52.46,38.24"/>
	<path class="st0" d="M63.97,45.15c-1.22,0-2.22-1-2.22-2.22c0-1.22,1-2.22,2.22-2.22s2.22,1,2.22,2.22
		C66.19,44.15,65.2,45.15,63.97,45.15 M63.97,38.24c-2.58,0-4.69,2.1-4.69,4.69c0,2.58,2.1,4.69,4.69,4.69
		c2.58,0,4.69-2.1,4.69-4.69C68.66,40.34,66.56,38.24,63.97,38.24"/>
	<path class="st0" d="M40.95,45.15c-1.22,0-2.22-1-2.22-2.22c0-1.22,1-2.22,2.22-2.22s2.22,1,2.22,2.22
		C43.17,44.15,42.18,45.15,40.95,45.15 M40.95,38.24c-2.58,0-4.69,2.1-4.69,4.69c0,2.58,2.1,4.69,4.69,4.69
		c2.58,0,4.69-2.1,4.69-4.69C45.64,40.34,43.54,38.24,40.95,38.24"/>
	<path class="st0" d="M28.6,56.94c-0.48-0.48-1.26-0.48-1.74,0l-4.02,4.02l-1.37-1.37c-0.48-0.48-1.26-0.48-1.74,0
		c-0.48,0.48-0.48,1.26,0,1.74l2.24,2.24c0.23,0.23,0.55,0.36,0.87,0.36s0.64-0.13,0.87-0.36l4.89-4.89
		C29.09,58.2,29.09,57.42,28.6,56.94"/>
</g>
</svg>
