<?xml version="1.0" encoding="utf-8"?>
<!-- Generator: Adobe Illustrator 23.0.3, SVG Export Plug-In . SVG Version: 6.00 Build 0)  -->
<svg version="1.1" id="Layer_1" xmlns="http://www.w3.org/2000/svg" xmlns:xlink="http://www.w3.org/1999/xlink" x="0px" y="0px"
	 viewBox="0 0 88 91" style="enable-background:new 0 0 88 91;" xml:space="preserve">
<style type="text/css">
	.st0{fill:#58246A;}
</style>
<g>
	<path class="st0" d="M69.16,27.24H22.7c-0.85,0-1.53,0.69-1.53,1.53v23.17c0,0.85,0.69,1.53,1.53,1.53c0.85,0,1.53-0.69,1.53-1.53
		V30.31h43.39v21.64c0,0.85,0.69,1.53,1.53,1.53s1.53-0.69,1.53-1.53V28.77C70.7,27.93,70.01,27.24,69.16,27.24"/>
	<path class="st0" d="M78.81,61.52L78.81,61.52c0,2.23-1.82,4.05-4.05,4.05H17.1c-2.23,0-4.05-1.82-4.05-4.05v-1.33h24.14
		c0.6,2.02,2.47,3.49,4.67,3.49h8.13c2.21,0,4.08-1.48,4.68-3.49h24.14V61.52z M17.56,25.2c0-0.86,0.7-1.57,1.57-1.57h53.6
		c0.87,0,1.57,0.7,1.57,1.57v32.22H53.53c-0.1,0-0.2,0-0.3,0.02c-0.65,0.13-1.12,0.69-1.12,1.35c0,1.17-0.95,2.11-2.11,2.11h-8.13
		c-1.17,0-2.11-0.95-2.11-2.11c0-0.77-0.64-1.4-1.41-1.38H17.56V25.2z M80.2,57.42h-2.83V25.2c0-2.56-2.08-4.64-4.64-4.64h-53.6
		c-2.56,0-4.64,2.08-4.64,4.64v32.22h-2.83c-0.76,0-1.38,0.62-1.38,1.38v2.71c0,3.76,3.06,6.81,6.81,6.81h57.66
		c3.76,0,6.81-3.06,6.81-6.81v-2.71C81.58,58.04,80.96,57.42,80.2,57.42"/>
	<path class="st0" d="M48.21,36.16c-0.6-0.6-1.57-0.6-2.17,0l-9.65,9.65c-0.6,0.6-0.6,1.57,0,2.17c0.3,0.3,0.69,0.45,1.08,0.45
		c0.39,0,0.78-0.15,1.09-0.45l9.65-9.65C48.8,37.73,48.8,36.76,48.21,36.16"/>
	<path class="st0" d="M53.92,41.75c-0.6-0.6-1.57-0.6-2.17,0l-3.84,3.84c-0.6,0.6-0.6,1.57,0,2.17c0.3,0.3,0.69,0.45,1.08,0.45
		c0.39,0,0.78-0.15,1.08-0.45l3.84-3.84C54.52,43.32,54.52,42.35,53.92,41.75"/>
</g>
</svg>
