<?xml version="1.0" encoding="utf-8"?>
<!-- Generator: Adobe Illustrator 23.0.3, SVG Export Plug-In . SVG Version: 6.00 Build 0)  -->
<svg version="1.1" id="Layer_1" xmlns="http://www.w3.org/2000/svg" xmlns:xlink="http://www.w3.org/1999/xlink" x="0px" y="0px"
	 viewBox="0 0 88 91" style="enable-background:new 0 0 88 91;" xml:space="preserve">
<style type="text/css">
	.st0{fill:#EFEFF4;}
</style>
<g>
	<path class="st0" d="M82.06,56.22L67.35,69.45c-1.23,0.99-2.7,1.65-4.25,1.9L40.3,74.64c0,0-0.01,0-0.01,0l-0.02,0
		c-0.69,0.11-1.41,0.06-2.14-0.14l-16.22-6.14V48.45h1.81c1.54,0,3.08,0.18,4.57,0.52c0.06,0.01,0.11,0.03,0.17,0.04
		c0.18,0.04,0.37,0.09,0.55,0.14c0.01,0,0.03,0.01,0.05,0.01c0.18,0.05,0.36,0.1,0.55,0.16c0.03,0.01,0.06,0.02,0.1,0.03
		c0.19,0.06,0.38,0.12,0.58,0.19c0.02,0.01,0.04,0.01,0.06,0.02c0.4,0.14,0.79,0.29,1.18,0.45c0.02,0.01,0.04,0.02,0.06,0.03
		c0.19,0.08,0.39,0.17,0.58,0.25c0,0,0.01,0.01,0.01,0.01c0.18,0.09,0.37,0.17,0.55,0.26c0.02,0.01,0.04,0.02,0.07,0.03
		c0.18,0.09,0.35,0.18,0.53,0.28c0.03,0.02,0.07,0.04,0.1,0.05c0.18,0.1,0.35,0.19,0.53,0.3c2.52,1.48,5.27,2.43,8.16,2.84
		c0.01,0,0.02,0,0.03,0L54,55.42c0.06,0.01,0.13,0.02,0.2,0.03c1.75,0.33,3.13,1.62,3.59,3.3c0.07,0.25,0.12,0.51,0.14,0.77
		L57.98,60l-22.24-1.95c-0.58-0.05-1.1,0.38-1.15,0.96c-0.05,0.58,0.38,1.1,0.96,1.15l23.52,2.06c0.01,0,0.01,0,0.02,0
		c0.01,0,0.01,0,0.02,0l4.44,0.25c0.02,0,0.04,0,0.06,0c0.02,0,0.04,0,0.06-0.01c0.02,0,0.05,0,0.07-0.01
		c0.03,0,0.06-0.01,0.09-0.02c0.02-0.01,0.04-0.01,0.07-0.02c0.03-0.01,0.07-0.02,0.1-0.04c0.02-0.01,0.04-0.01,0.05-0.02
		c0.05-0.02,0.1-0.05,0.14-0.08l3.76-2.52c0,0,0,0,0,0l11.12-7.44c1.12-0.75,2.65-0.46,3.4,0.66C83.16,54.01,82.99,55.4,82.06,56.22
		 M52.53,53.12l-8.86-1.02L42.83,52l-0.02-12.16l9.69-0.01L52.53,53.12z M47.63,17.75L66.26,35.2l0.03,23.13l-3,2.01l-3.18-0.18
		l-0.08-0.84c-0.3-2.97-2.49-5.36-5.39-5.93l-0.02-13.76c0-1.06-0.86-1.91-1.92-1.91h0l-10.1,0.01c-0.51,0-0.99,0.2-1.35,0.56
		c-0.36,0.36-0.56,0.84-0.56,1.36l0.02,12c-2-0.46-3.91-1.21-5.69-2.26c-0.22-0.13-0.45-0.26-0.67-0.38
		c-0.09-0.05-0.18-0.09-0.27-0.14c-0.14-0.07-0.28-0.14-0.42-0.21c-0.11-0.06-0.22-0.11-0.33-0.16c-0.12-0.06-0.24-0.11-0.36-0.17
		c-0.12-0.05-0.24-0.11-0.37-0.16c-0.11-0.05-0.22-0.1-0.34-0.14c-0.13-0.05-0.25-0.1-0.38-0.15c-0.11-0.04-0.22-0.09-0.34-0.13
		c-0.13-0.05-0.25-0.09-0.38-0.14c-0.12-0.04-0.24-0.08-0.36-0.12c-0.12-0.04-0.24-0.08-0.37-0.12c-0.13-0.04-0.26-0.08-0.39-0.12
		c-0.11-0.03-0.22-0.07-0.34-0.1c-0.15-0.04-0.3-0.08-0.44-0.12c-0.07-0.02-0.14-0.04-0.21-0.05l-0.02-11.72L47.63,17.75z
		 M34.43,16.87l0.01,2.98l-5.21,4.9l-0.01-7.88L34.43,16.87z M84.22,51.8c-1.41-2.08-4.25-2.62-6.34-1.22l-9.47,6.34l-0.03-19.73
		l3.29,3.08c0.7,0.65,1.61,1.02,2.57,1.02h0.01c1.03,0,2.03-0.43,2.74-1.19c0.69-0.73,1.05-1.69,1.01-2.69
		c-0.03-1-0.45-1.93-1.19-2.62l-6.24-5.84c-0.43-0.4-1.1-0.38-1.5,0.05c-0.4,0.43-0.38,1.1,0.05,1.5l6.24,5.84
		c0.32,0.3,0.5,0.71,0.52,1.14c0.01,0.44-0.14,0.86-0.44,1.18c-0.31,0.33-0.74,0.52-1.2,0.52h0c-0.42,0-0.82-0.16-1.12-0.44
		l-24.77-23.2c-0.41-0.38-1.04-0.38-1.45,0L22.2,38.79c-0.32,0.3-0.74,0.46-1.17,0.44s-0.85-0.2-1.15-0.51
		c-0.3-0.32-0.46-0.74-0.45-1.17c0.01-0.44,0.2-0.85,0.52-1.15L46.5,11.39c0.63-0.59,1.62-0.6,2.25,0l15.53,14.55
		c0.43,0.4,1.1,0.38,1.5-0.05c0.4-0.43,0.38-1.1-0.05-1.5L50.2,9.84c-1.45-1.35-3.71-1.35-5.15,0.01l-8.5,8.01l0-1.43
		c0-0.45-0.18-0.87-0.49-1.19c-0.32-0.32-0.74-0.49-1.19-0.49h0l-6.08,0.01c-0.45,0-0.87,0.18-1.19,0.5
		c-0.32,0.32-0.49,0.74-0.49,1.19l0.02,10.3l-8.61,8.12c-0.73,0.69-1.15,1.62-1.18,2.63c-0.03,1,0.33,1.96,1.02,2.69
		c0.69,0.73,1.62,1.15,2.63,1.18c0.04,0,0.08,0,0.12,0c0.96,0,1.87-0.36,2.57-1.02l3.28-3.09l0.01,9.32
		c-1.06-0.15-2.14-0.24-3.22-0.24h-1.81v-0.63c0-2.13-1.73-3.87-3.87-3.87h-3.39c-2.13,0-3.87,1.73-3.87,3.87v16.6
		c0,0.58,0.48,1.06,1.06,1.06s1.06-0.47,1.06-1.06v-16.6c0-0.96,0.78-1.75,1.75-1.75h3.39c0.96,0,1.75,0.78,1.75,1.75v1.69V69.1
		v1.68c0,0.96-0.79,1.75-1.75,1.75h-3.39c-0.96,0-1.75-0.78-1.75-1.75v-1.85c0-0.58-0.47-1.06-1.06-1.06s-1.06,0.47-1.06,1.06v1.85
		c0,2.13,1.74,3.87,3.87,3.87h3.39c2.13,0,3.87-1.74,3.87-3.87v-0.14l15.51,5.87c0.03,0.01,0.06,0.02,0.09,0.03
		c0.67,0.19,1.35,0.29,2.01,0.29c0.36,0,0.72-0.03,1.07-0.08l22.8-3.29c0.01,0,0.01,0,0.02,0c1.94-0.31,3.77-1.13,5.29-2.37
		c0.01-0.01,0.03-0.02,0.04-0.03L83.47,57.8C85.19,56.28,85.51,53.7,84.22,51.8"/>
</g>
</svg>
